<?xml version="1.0" encoding="us-ascii" standalone="no"?><svg xmlns="http://www.w3.org/2000/svg" xmlns:xlink="http://www.w3.org/1999/xlink" contentStyleType="text/css" height="615px" preserveAspectRatio="none" style="width:1231px;height:615px;background:#FFFFFF;" version="1.1" viewBox="0 0 1231 615" width="1231px" zoomAndPan="magnify"><defs/><g><!--class Benutzer--><g id="elem_Benutzer"><rect codeLine="1" fill="#F1F1F1" height="85.2422" id="Benutzer" rx="2.5" ry="2.5" style="stroke:#181818;stroke-width:0.5;" width="161" x="86" y="205"/><ellipse cx="134.25" cy="221" fill="#ADD1B2" rx="11" ry="11" style="stroke:#181818;stroke-width:1.0;"/><path d="M137.0156,216.875 Q137.1719,216.6563 137.3594,216.5469 Q137.5469,216.4375 137.7656,216.4375 Q138.1406,216.4375 138.375,216.7031 Q138.6094,216.9531 138.6094,217.5625 L138.6094,219.0156 Q138.6094,219.625 138.375,219.8906 Q138.1406,220.1563 137.7656,220.1563 Q137.4219,220.1563 137.2188,219.9531 Q137.0156,219.7656 136.9063,219.25 Q136.8594,218.8906 136.6719,218.7031 Q136.3438,218.3281 135.7344,218.1094 Q135.125,217.8906 134.5,217.8906 Q133.7344,217.8906 133.0938,218.2188 Q132.4688,218.5469 131.9688,219.2969 Q131.4844,220.0469 131.4844,221.0781 L131.4844,222.1719 Q131.4844,223.4063 132.375,224.2344 Q133.2656,225.0469 134.8594,225.0469 Q135.7969,225.0469 136.4531,224.7969 Q136.8438,224.6406 137.2656,224.2031 Q137.5313,223.9375 137.6719,223.8594 Q137.8281,223.7813 138.0313,223.7813 Q138.3594,223.7813 138.6094,224.0469 Q138.875,224.2969 138.875,224.6406 Q138.875,224.9844 138.5313,225.3906 Q138.0313,225.9688 137.2344,226.2969 Q136.1563,226.75 134.8594,226.75 Q133.3438,226.75 132.1406,226.125 Q131.1563,225.625 130.4688,224.5625 Q129.7813,223.4844 129.7813,222.2031 L129.7813,221.0469 Q129.7813,219.7188 130.3906,218.5781 Q131.0156,217.4219 132.1094,216.8125 Q133.2031,216.1875 134.4375,216.1875 Q135.1719,216.1875 135.8125,216.3594 Q136.4688,216.5156 137.0156,216.875 Z " fill="#000000"/><text fill="#000000" font-family="sans-serif" font-size="14" lengthAdjust="spacing" textLength="56" x="154.75" y="226.7969">Benutzer</text><line style="stroke:#181818;stroke-width:0.5;" x1="87" x2="246" y1="237" y2="237"/><text fill="#000000" font-family="sans-serif" font-size="14" lengthAdjust="spacing" textLength="80" x="92" y="256.1074">String name,</text><text fill="#000000" font-family="sans-serif" font-size="14" lengthAdjust="spacing" textLength="149" x="92" y="274.7285">String passwordHashed</text><line style="stroke:#181818;stroke-width:0.5;" x1="87" x2="246" y1="282.2422" y2="282.2422"/></g><!--class Serie--><g id="elem_Serie"><rect codeLine="5" fill="#F1F1F1" height="103.8633" id="Serie" rx="2.5" ry="2.5" style="stroke:#181818;stroke-width:0.5;" width="188" x="461.5" y="10"/><ellipse cx="490.9" cy="26" fill="#ADD1B2" rx="11" ry="11" style="stroke:#181818;stroke-width:1.0;"/><path d="M493.6656,21.875 Q493.8219,21.6563 494.0094,21.5469 Q494.1969,21.4375 494.4156,21.4375 Q494.7906,21.4375 495.025,21.7031 Q495.2594,21.9531 495.2594,22.5625 L495.2594,24.0156 Q495.2594,24.625 495.025,24.8906 Q494.7906,25.1563 494.4156,25.1563 Q494.0719,25.1563 493.8688,24.9531 Q493.6656,24.7656 493.5563,24.25 Q493.5094,23.8906 493.3219,23.7031 Q492.9938,23.3281 492.3844,23.1094 Q491.775,22.8906 491.15,22.8906 Q490.3844,22.8906 489.7438,23.2188 Q489.1188,23.5469 488.6188,24.2969 Q488.1344,25.0469 488.1344,26.0781 L488.1344,27.1719 Q488.1344,28.4063 489.025,29.2344 Q489.9156,30.0469 491.5094,30.0469 Q492.4469,30.0469 493.1031,29.7969 Q493.4938,29.6406 493.9156,29.2031 Q494.1813,28.9375 494.3219,28.8594 Q494.4781,28.7813 494.6813,28.7813 Q495.0094,28.7813 495.2594,29.0469 Q495.525,29.2969 495.525,29.6406 Q495.525,29.9844 495.1813,30.3906 Q494.6813,30.9688 493.8844,31.2969 Q492.8063,31.75 491.5094,31.75 Q489.9938,31.75 488.7906,31.125 Q487.8063,30.625 487.1188,29.5625 Q486.4313,28.4844 486.4313,27.2031 L486.4313,26.0469 Q486.4313,24.7188 487.0406,23.5781 Q487.6656,22.4219 488.7594,21.8125 Q489.8531,21.1875 491.0875,21.1875 Q491.8219,21.1875 492.4625,21.3594 Q493.1188,21.5156 493.6656,21.875 Z " fill="#000000"/><text fill="#000000" font-family="sans-serif" font-size="14" lengthAdjust="spacing" textLength="33" x="508.1" y="31.7969">Serie</text><rect fill="#FFFFFF" height="17.9609" style="stroke:#181818;stroke-width:1.0;stroke-dasharray:2.0,2.0;" width="89" x="563.5" y="7"/><text fill="#000000" font-family="sans-serif" font-size="12" font-style="italic" lengthAdjust="spacing" textLength="87" x="564.5" y="20.9492">? extends Event</text><line style="stroke:#181818;stroke-width:0.5;" x1="462.5" x2="648.5" y1="42" y2="42"/><text fill="#000000" font-family="sans-serif" font-size="14" lengthAdjust="spacing" textLength="51" x="467.5" y="61.1074">? event,</text><text fill="#000000" font-family="sans-serif" font-size="14" lengthAdjust="spacing" textLength="66" x="467.5" y="79.7285">Date start,</text><text fill="#000000" font-family="sans-serif" font-size="14" lengthAdjust="spacing" textLength="176" x="467.5" y="98.3496">Wiederholung wiederholung</text><line style="stroke:#181818;stroke-width:0.5;" x1="462.5" x2="648.5" y1="105.8633" y2="105.8633"/></g><!--class Event--><g id="elem_Event"><rect codeLine="11" fill="#F1F1F1" height="141.1055" id="Event" rx="2.5" ry="2.5" style="stroke:#181818;stroke-width:0.5;" width="166" x="472.5" y="177"/><ellipse cx="533.75" cy="193" fill="#A9DCDF" rx="11" ry="11" style="stroke:#181818;stroke-width:1.0;"/><path d="M535.9375,194.7656 L531.7969,194.7656 L531.375,195.7969 L531.7969,195.7969 Q532.4063,195.7969 532.6719,196.0313 Q532.9375,196.2656 532.9375,196.6563 Q532.9375,197.0313 532.6719,197.2656 Q532.4063,197.5 531.7969,197.5 L529.5,197.5 Q528.8906,197.5 528.6406,197.2656 Q528.375,197.0313 528.375,196.6406 Q528.375,196.2656 528.6563,196.0313 Q528.9219,195.7813 529.5469,195.7969 L532.2188,189.1406 L531.1094,189.1406 Q530.5,189.1406 530.2344,188.9063 Q529.9688,188.6719 529.9688,188.2813 Q529.9688,187.9063 530.2344,187.6719 Q530.5,187.4375 531.1094,187.4375 L534.7813,187.4375 L538.1719,195.7969 Q538.7656,195.7969 538.9531,195.9375 Q539.3438,196.2031 539.3438,196.6563 Q539.3438,197.0313 539.0781,197.2656 Q538.8281,197.5 538.2188,197.5 L535.9219,197.5 Q535.3125,197.5 535.0469,197.2656 Q534.7813,197.0313 534.7813,196.6406 Q534.7813,196.2656 535.0469,196.0313 Q535.3125,195.7969 535.9219,195.7969 L536.3438,195.7969 L535.9375,194.7656 Z M535.2188,193.0625 L533.8594,189.6875 L532.4844,193.0625 L535.2188,193.0625 Z " fill="#000000"/><text fill="#000000" font-family="sans-serif" font-size="14" font-style="italic" lengthAdjust="spacing" textLength="35" x="554.25" y="198.7969">Event</text><line style="stroke:#181818;stroke-width:0.5;" x1="473.5" x2="637.5" y1="209" y2="209"/><text fill="#000000" font-family="sans-serif" font-size="14" lengthAdjust="spacing" textLength="67" x="478.5" y="228.1074">String titel,</text><text fill="#000000" font-family="sans-serif" font-size="14" lengthAdjust="spacing" textLength="113" x="478.5" y="246.7285">Herkunft herkunft,</text><text fill="#000000" font-family="sans-serif" font-size="14" lengthAdjust="spacing" textLength="154" x="478.5" y="265.3496">Sichtbarkeit sichtbarkeit,</text><text fill="#000000" font-family="sans-serif" font-size="14" lengthAdjust="spacing" textLength="132" x="478.5" y="283.9707">String Beschreibung,</text><text fill="#000000" font-family="sans-serif" font-size="14" lengthAdjust="spacing" textLength="139" x="478.5" y="302.5918">Optional&lt;Serie&gt; Serie</text><line style="stroke:#181818;stroke-width:0.5;" x1="473.5" x2="637.5" y1="310.1055" y2="310.1055"/></g><!--class Herkunft--><g id="elem_Herkunft"><rect codeLine="22" fill="#F1F1F1" height="66.6211" id="Herkunft" rx="2.5" ry="2.5" style="stroke:#181818;stroke-width:0.5;" width="156" x="181.5" y="387.5"/><ellipse cx="227.75" cy="403.5" fill="#B4A7E5" rx="11" ry="11" style="stroke:#181818;stroke-width:1.0;"/><path d="M228.7031,400.1406 L228.7031,406.7969 L230.4219,406.7969 Q231.0313,406.7969 231.2969,407.0313 Q231.5625,407.2656 231.5625,407.6563 Q231.5625,408.0313 231.2969,408.2656 Q231.0313,408.5 230.4219,408.5 L225.2813,408.5 Q224.6719,408.5 224.4063,408.2656 Q224.1406,408.0313 224.1406,407.6406 Q224.1406,407.2656 224.4063,407.0313 Q224.6719,406.7969 225.2813,406.7969 L227,406.7969 L227,400.1406 L225.2813,400.1406 Q224.6719,400.1406 224.4063,399.9063 Q224.1406,399.6719 224.1406,399.2813 Q224.1406,398.9063 224.4063,398.6719 Q224.6719,398.4375 225.2813,398.4375 L230.4219,398.4375 Q231.0313,398.4375 231.2969,398.6719 Q231.5625,398.9063 231.5625,399.2813 Q231.5625,399.6719 231.2969,399.9063 Q231.0313,400.1406 230.4219,400.1406 L228.7031,400.1406 Z " fill="#000000"/><text fill="#000000" font-family="sans-serif" font-size="14" font-style="italic" lengthAdjust="spacing" textLength="55" x="248.25" y="409.2969">Herkunft</text><line style="stroke:#181818;stroke-width:0.5;" x1="182.5" x2="336.5" y1="419.5" y2="419.5"/><line style="stroke:#181818;stroke-width:0.5;" x1="182.5" x2="336.5" y1="427.5" y2="427.5"/><text fill="#000000" font-family="sans-serif" font-size="14" lengthAdjust="spacing" textLength="144" x="187.5" y="446.6074">getBesitzer(): Benutzer</text></g><!--class Sichtbarkeit--><g id="elem_Sichtbarkeit"><rect codeLine="28" fill="#F1F1F1" height="66.6211" id="Sichtbarkeit" rx="2.5" ry="2.5" style="stroke:#181818;stroke-width:0.5;" width="209" x="381" y="387"/><ellipse cx="443.75" cy="403" fill="#B4A7E5" rx="11" ry="11" style="stroke:#181818;stroke-width:1.0;"/><path d="M444.7031,399.6406 L444.7031,406.2969 L446.4219,406.2969 Q447.0313,406.2969 447.2969,406.5313 Q447.5625,406.7656 447.5625,407.1563 Q447.5625,407.5313 447.2969,407.7656 Q447.0313,408 446.4219,408 L441.2813,408 Q440.6719,408 440.4063,407.7656 Q440.1406,407.5313 440.1406,407.1406 Q440.1406,406.7656 440.4063,406.5313 Q440.6719,406.2969 441.2813,406.2969 L443,406.2969 L443,399.6406 L441.2813,399.6406 Q440.6719,399.6406 440.4063,399.4063 Q440.1406,399.1719 440.1406,398.7813 Q440.1406,398.4063 440.4063,398.1719 Q440.6719,397.9375 441.2813,397.9375 L446.4219,397.9375 Q447.0313,397.9375 447.2969,398.1719 Q447.5625,398.4063 447.5625,398.7813 Q447.5625,399.1719 447.2969,399.4063 Q447.0313,399.6406 446.4219,399.6406 L444.7031,399.6406 Z " fill="#000000"/><text fill="#000000" font-family="sans-serif" font-size="14" font-style="italic" lengthAdjust="spacing" textLength="75" x="464.25" y="408.7969">Sichtbarkeit</text><line style="stroke:#181818;stroke-width:0.5;" x1="382" x2="589" y1="419" y2="419"/><line style="stroke:#181818;stroke-width:0.5;" x1="382" x2="589" y1="427" y2="427"/><text fill="#000000" font-family="sans-serif" font-size="14" lengthAdjust="spacing" textLength="197" x="387" y="446.1074">istSichtbarFuer(Benutzer): bool</text></g><!--class Machbar--><g id="elem_Machbar"><rect codeLine="34" fill="#F1F1F1" height="66.6211" id="Machbar" rx="2.5" ry="2.5" style="stroke:#181818;stroke-width:0.5;" width="110" x="763.5" y="214"/><ellipse cx="788.4" cy="230" fill="#B4A7E5" rx="11" ry="11" style="stroke:#181818;stroke-width:1.0;"/><path d="M789.3531,226.6406 L789.3531,233.2969 L791.0719,233.2969 Q791.6813,233.2969 791.9469,233.5313 Q792.2125,233.7656 792.2125,234.1563 Q792.2125,234.5313 791.9469,234.7656 Q791.6813,235 791.0719,235 L785.9313,235 Q785.3219,235 785.0563,234.7656 Q784.7906,234.5313 784.7906,234.1406 Q784.7906,233.7656 785.0563,233.5313 Q785.3219,233.2969 785.9313,233.2969 L787.65,233.2969 L787.65,226.6406 L785.9313,226.6406 Q785.3219,226.6406 785.0563,226.4063 Q784.7906,226.1719 784.7906,225.7813 Q784.7906,225.4063 785.0563,225.1719 Q785.3219,224.9375 785.9313,224.9375 L791.0719,224.9375 Q791.6813,224.9375 791.9469,225.1719 Q792.2125,225.4063 792.2125,225.7813 Q792.2125,226.1719 791.9469,226.4063 Q791.6813,226.6406 791.0719,226.6406 L789.3531,226.6406 Z " fill="#000000"/><text fill="#000000" font-family="sans-serif" font-size="14" font-style="italic" lengthAdjust="spacing" textLength="56" x="804.6" y="235.7969">Machbar</text><line style="stroke:#181818;stroke-width:0.5;" x1="764.5" x2="872.5" y1="246" y2="246"/><line style="stroke:#181818;stroke-width:0.5;" x1="764.5" x2="872.5" y1="254" y2="254"/><text fill="#000000" font-family="sans-serif" font-size="14" lengthAdjust="spacing" textLength="98" x="769.5" y="273.1074">istGetan(): bool</text></g><!--class Aufgabe--><g id="elem_Aufgabe"><rect codeLine="38" fill="#F1F1F1" height="66.6211" id="Aufgabe" rx="2.5" ry="2.5" style="stroke:#181818;stroke-width:0.5;" width="100" x="788.5" y="387"/><ellipse cx="810.25" cy="403" fill="#ADD1B2" rx="11" ry="11" style="stroke:#181818;stroke-width:1.0;"/><path d="M813.0156,398.875 Q813.1719,398.6563 813.3594,398.5469 Q813.5469,398.4375 813.7656,398.4375 Q814.1406,398.4375 814.375,398.7031 Q814.6094,398.9531 814.6094,399.5625 L814.6094,401.0156 Q814.6094,401.625 814.375,401.8906 Q814.1406,402.1563 813.7656,402.1563 Q813.4219,402.1563 813.2188,401.9531 Q813.0156,401.7656 812.9063,401.25 Q812.8594,400.8906 812.6719,400.7031 Q812.3438,400.3281 811.7344,400.1094 Q811.125,399.8906 810.5,399.8906 Q809.7344,399.8906 809.0938,400.2188 Q808.4688,400.5469 807.9688,401.2969 Q807.4844,402.0469 807.4844,403.0781 L807.4844,404.1719 Q807.4844,405.4063 808.375,406.2344 Q809.2656,407.0469 810.8594,407.0469 Q811.7969,407.0469 812.4531,406.7969 Q812.8438,406.6406 813.2656,406.2031 Q813.5313,405.9375 813.6719,405.8594 Q813.8281,405.7813 814.0313,405.7813 Q814.3594,405.7813 814.6094,406.0469 Q814.875,406.2969 814.875,406.6406 Q814.875,406.9844 814.5313,407.3906 Q814.0313,407.9688 813.2344,408.2969 Q812.1563,408.75 810.8594,408.75 Q809.3438,408.75 808.1406,408.125 Q807.1563,407.625 806.4688,406.5625 Q805.7813,405.4844 805.7813,404.2031 L805.7813,403.0469 Q805.7813,401.7188 806.3906,400.5781 Q807.0156,399.4219 808.1094,398.8125 Q809.2031,398.1875 810.4375,398.1875 Q811.1719,398.1875 811.8125,398.3594 Q812.4688,398.5156 813.0156,398.875 Z " fill="#000000"/><text fill="#000000" font-family="sans-serif" font-size="14" lengthAdjust="spacing" textLength="53" x="825.75" y="408.7969">Aufgabe</text><line style="stroke:#181818;stroke-width:0.5;" x1="789.5" x2="887.5" y1="419" y2="419"/><text fill="#000000" font-family="sans-serif" font-size="14" lengthAdjust="spacing" textLength="88" x="794.5" y="438.1074">Date deadline</text><line style="stroke:#181818;stroke-width:0.5;" x1="789.5" x2="887.5" y1="445.6211" y2="445.6211"/></g><!--class GeplanteAufgabe--><g id="elem_GeplanteAufgabe"><rect codeLine="42" fill="#F1F1F1" height="48" id="GeplanteAufgabe" rx="2.5" ry="2.5" style="stroke:#181818;stroke-width:0.5;" width="143" x="704" y="541.5"/><ellipse cx="719" cy="557.5" fill="#ADD1B2" rx="11" ry="11" style="stroke:#181818;stroke-width:1.0;"/><path d="M721.7656,553.375 Q721.9219,553.1563 722.1094,553.0469 Q722.2969,552.9375 722.5156,552.9375 Q722.8906,552.9375 723.125,553.2031 Q723.3594,553.4531 723.3594,554.0625 L723.3594,555.5156 Q723.3594,556.125 723.125,556.3906 Q722.8906,556.6563 722.5156,556.6563 Q722.1719,556.6563 721.9688,556.4531 Q721.7656,556.2656 721.6563,555.75 Q721.6094,555.3906 721.4219,555.2031 Q721.0938,554.8281 720.4844,554.6094 Q719.875,554.3906 719.25,554.3906 Q718.4844,554.3906 717.8438,554.7188 Q717.2188,555.0469 716.7188,555.7969 Q716.2344,556.5469 716.2344,557.5781 L716.2344,558.6719 Q716.2344,559.9063 717.125,560.7344 Q718.0156,561.5469 719.6094,561.5469 Q720.5469,561.5469 721.2031,561.2969 Q721.5938,561.1406 722.0156,560.7031 Q722.2813,560.4375 722.4219,560.3594 Q722.5781,560.2813 722.7813,560.2813 Q723.1094,560.2813 723.3594,560.5469 Q723.625,560.7969 723.625,561.1406 Q723.625,561.4844 723.2813,561.8906 Q722.7813,562.4688 721.9844,562.7969 Q720.9063,563.25 719.6094,563.25 Q718.0938,563.25 716.8906,562.625 Q715.9063,562.125 715.2188,561.0625 Q714.5313,559.9844 714.5313,558.7031 L714.5313,557.5469 Q714.5313,556.2188 715.1406,555.0781 Q715.7656,553.9219 716.8594,553.3125 Q717.9531,552.6875 719.1875,552.6875 Q719.9219,552.6875 720.5625,552.8594 Q721.2188,553.0156 721.7656,553.375 Z " fill="#000000"/><text fill="#000000" font-family="sans-serif" font-size="14" lengthAdjust="spacing" textLength="111" x="733" y="563.2969">GeplanteAufgabe</text><line style="stroke:#181818;stroke-width:0.5;" x1="705" x2="846" y1="573.5" y2="573.5"/><line style="stroke:#181818;stroke-width:0.5;" x1="705" x2="846" y1="581.5" y2="581.5"/></g><!--class Termin--><g id="elem_Termin"><rect codeLine="51" fill="#F1F1F1" height="66.6211" id="Termin" rx="2.5" ry="2.5" style="stroke:#181818;stroke-width:0.5;" width="128" x="625.5" y="387"/><ellipse cx="663.9" cy="403" fill="#ADD1B2" rx="11" ry="11" style="stroke:#181818;stroke-width:1.0;"/><path d="M666.6656,398.875 Q666.8219,398.6563 667.0094,398.5469 Q667.1969,398.4375 667.4156,398.4375 Q667.7906,398.4375 668.025,398.7031 Q668.2594,398.9531 668.2594,399.5625 L668.2594,401.0156 Q668.2594,401.625 668.025,401.8906 Q667.7906,402.1563 667.4156,402.1563 Q667.0719,402.1563 666.8688,401.9531 Q666.6656,401.7656 666.5563,401.25 Q666.5094,400.8906 666.3219,400.7031 Q665.9938,400.3281 665.3844,400.1094 Q664.775,399.8906 664.15,399.8906 Q663.3844,399.8906 662.7438,400.2188 Q662.1188,400.5469 661.6188,401.2969 Q661.1344,402.0469 661.1344,403.0781 L661.1344,404.1719 Q661.1344,405.4063 662.025,406.2344 Q662.9156,407.0469 664.5094,407.0469 Q665.4469,407.0469 666.1031,406.7969 Q666.4938,406.6406 666.9156,406.2031 Q667.1813,405.9375 667.3219,405.8594 Q667.4781,405.7813 667.6813,405.7813 Q668.0094,405.7813 668.2594,406.0469 Q668.525,406.2969 668.525,406.6406 Q668.525,406.9844 668.1813,407.3906 Q667.6813,407.9688 666.8844,408.2969 Q665.8063,408.75 664.5094,408.75 Q662.9938,408.75 661.7906,408.125 Q660.8063,407.625 660.1188,406.5625 Q659.4313,405.4844 659.4313,404.2031 L659.4313,403.0469 Q659.4313,401.7188 660.0406,400.5781 Q660.6656,399.4219 661.7594,398.8125 Q662.8531,398.1875 664.0875,398.1875 Q664.8219,398.1875 665.4625,398.3594 Q666.1188,398.5156 666.6656,398.875 Z " fill="#000000"/><text fill="#000000" font-family="sans-serif" font-size="14" lengthAdjust="spacing" textLength="44" x="683.1" y="408.7969">Termin</text><line style="stroke:#181818;stroke-width:0.5;" x1="626.5" x2="752.5" y1="419" y2="419"/><text fill="#000000" font-family="sans-serif" font-size="14" lengthAdjust="spacing" textLength="116" x="631.5" y="438.1074">Zeitraum zeitraum;</text><line style="stroke:#181818;stroke-width:0.5;" x1="626.5" x2="752.5" y1="445.6211" y2="445.6211"/></g><!--class Wiederholung--><g id="elem_Wiederholung"><rect codeLine="46" fill="#F1F1F1" height="85.2422" id="Wiederholung" rx="2.5" ry="2.5" style="stroke:#181818;stroke-width:0.5;" width="307" x="917" y="205"/><ellipse cx="1021.75" cy="221" fill="#B4A7E5" rx="11" ry="11" style="stroke:#181818;stroke-width:1.0;"/><path d="M1022.7031,217.6406 L1022.7031,224.2969 L1024.4219,224.2969 Q1025.0313,224.2969 1025.2969,224.5313 Q1025.5625,224.7656 1025.5625,225.1563 Q1025.5625,225.5313 1025.2969,225.7656 Q1025.0313,226 1024.4219,226 L1019.2813,226 Q1018.6719,226 1018.4063,225.7656 Q1018.1406,225.5313 1018.1406,225.1406 Q1018.1406,224.7656 1018.4063,224.5313 Q1018.6719,224.2969 1019.2813,224.2969 L1021,224.2969 L1021,217.6406 L1019.2813,217.6406 Q1018.6719,217.6406 1018.4063,217.4063 Q1018.1406,217.1719 1018.1406,216.7813 Q1018.1406,216.4063 1018.4063,216.1719 Q1018.6719,215.9375 1019.2813,215.9375 L1024.4219,215.9375 Q1025.0313,215.9375 1025.2969,216.1719 Q1025.5625,216.4063 1025.5625,216.7813 Q1025.5625,217.1719 1025.2969,217.4063 Q1025.0313,217.6406 1024.4219,217.6406 L1022.7031,217.6406 Z " fill="#000000"/><text fill="#000000" font-family="sans-serif" font-size="14" font-style="italic" lengthAdjust="spacing" textLength="89" x="1042.25" y="226.7969">Wiederholung</text><line style="stroke:#181818;stroke-width:0.5;" x1="918" x2="1223" y1="237" y2="237"/><line style="stroke:#181818;stroke-width:0.5;" x1="918" x2="1223" y1="245" y2="245"/><text fill="#000000" font-family="sans-serif" font-size="14" lengthAdjust="spacing" textLength="220" x="923" y="264.1074">naechsterZeitpunktAb(Date): Date,</text><text fill="#000000" font-family="sans-serif" font-size="14" lengthAdjust="spacing" textLength="295" x="923" y="282.7285">alleZeitpunkteInZeitraum(Zeitraum): List&lt;Date&gt;</text></g><!--class Zuordnung--><g id="elem_Zuordnung"><rect codeLine="55" fill="#F1F1F1" height="85.2422" id="Zuordnung" rx="2.5" ry="2.5" style="stroke:#181818;stroke-width:0.5;" width="131" x="7" y="378"/><ellipse cx="35.5" cy="394" fill="#ADD1B2" rx="11" ry="11" style="stroke:#181818;stroke-width:1.0;"/><path d="M38.2656,389.875 Q38.4219,389.6563 38.6094,389.5469 Q38.7969,389.4375 39.0156,389.4375 Q39.3906,389.4375 39.625,389.7031 Q39.8594,389.9531 39.8594,390.5625 L39.8594,392.0156 Q39.8594,392.625 39.625,392.8906 Q39.3906,393.1563 39.0156,393.1563 Q38.6719,393.1563 38.4688,392.9531 Q38.2656,392.7656 38.1563,392.25 Q38.1094,391.8906 37.9219,391.7031 Q37.5938,391.3281 36.9844,391.1094 Q36.375,390.8906 35.75,390.8906 Q34.9844,390.8906 34.3438,391.2188 Q33.7188,391.5469 33.2188,392.2969 Q32.7344,393.0469 32.7344,394.0781 L32.7344,395.1719 Q32.7344,396.4063 33.625,397.2344 Q34.5156,398.0469 36.1094,398.0469 Q37.0469,398.0469 37.7031,397.7969 Q38.0938,397.6406 38.5156,397.2031 Q38.7813,396.9375 38.9219,396.8594 Q39.0781,396.7813 39.2813,396.7813 Q39.6094,396.7813 39.8594,397.0469 Q40.125,397.2969 40.125,397.6406 Q40.125,397.9844 39.7813,398.3906 Q39.2813,398.9688 38.4844,399.2969 Q37.4063,399.75 36.1094,399.75 Q34.5938,399.75 33.3906,399.125 Q32.4063,398.625 31.7188,397.5625 Q31.0313,396.4844 31.0313,395.2031 L31.0313,394.0469 Q31.0313,392.7188 31.6406,391.5781 Q32.2656,390.4219 33.3594,389.8125 Q34.4531,389.1875 35.6875,389.1875 Q36.4219,389.1875 37.0625,389.3594 Q37.7188,389.5156 38.2656,389.875 Z " fill="#000000"/><text fill="#000000" font-family="sans-serif" font-size="14" lengthAdjust="spacing" textLength="69" x="52.5" y="399.7969">Zuordnung</text><line style="stroke:#181818;stroke-width:0.5;" x1="8" x2="137" y1="410" y2="410"/><text fill="#000000" font-family="sans-serif" font-size="14" lengthAdjust="spacing" textLength="119" x="13" y="429.1074">Benutzer benutzer,</text><text fill="#000000" font-family="sans-serif" font-size="14" lengthAdjust="spacing" textLength="75" x="13" y="447.7285">Event event</text><line style="stroke:#181818;stroke-width:0.5;" x1="8" x2="137" y1="455.2422" y2="455.2422"/></g><!--class Zeitraum--><g id="elem_Zeitraum"><rect codeLine="60" fill="#F1F1F1" height="85.2422" id="Zeitraum" rx="2.5" ry="2.5" style="stroke:#181818;stroke-width:0.5;" width="87" x="925" y="523"/><ellipse cx="940" cy="539" fill="#ADD1B2" rx="11" ry="11" style="stroke:#181818;stroke-width:1.0;"/><path d="M942.7656,534.875 Q942.9219,534.6563 943.1094,534.5469 Q943.2969,534.4375 943.5156,534.4375 Q943.8906,534.4375 944.125,534.7031 Q944.3594,534.9531 944.3594,535.5625 L944.3594,537.0156 Q944.3594,537.625 944.125,537.8906 Q943.8906,538.1563 943.5156,538.1563 Q943.1719,538.1563 942.9688,537.9531 Q942.7656,537.7656 942.6563,537.25 Q942.6094,536.8906 942.4219,536.7031 Q942.0938,536.3281 941.4844,536.1094 Q940.875,535.8906 940.25,535.8906 Q939.4844,535.8906 938.8438,536.2188 Q938.2188,536.5469 937.7188,537.2969 Q937.2344,538.0469 937.2344,539.0781 L937.2344,540.1719 Q937.2344,541.4063 938.125,542.2344 Q939.0156,543.0469 940.6094,543.0469 Q941.5469,543.0469 942.2031,542.7969 Q942.5938,542.6406 943.0156,542.2031 Q943.2813,541.9375 943.4219,541.8594 Q943.5781,541.7813 943.7813,541.7813 Q944.1094,541.7813 944.3594,542.0469 Q944.625,542.2969 944.625,542.6406 Q944.625,542.9844 944.2813,543.3906 Q943.7813,543.9688 942.9844,544.2969 Q941.9063,544.75 940.6094,544.75 Q939.0938,544.75 937.8906,544.125 Q936.9063,543.625 936.2188,542.5625 Q935.5313,541.4844 935.5313,540.2031 L935.5313,539.0469 Q935.5313,537.7188 936.1406,536.5781 Q936.7656,535.4219 937.8594,534.8125 Q938.9531,534.1875 940.1875,534.1875 Q940.9219,534.1875 941.5625,534.3594 Q942.2188,534.5156 942.7656,534.875 Z " fill="#000000"/><text fill="#000000" font-family="sans-serif" font-size="14" lengthAdjust="spacing" textLength="55" x="954" y="544.7969">Zeitraum</text><line style="stroke:#181818;stroke-width:0.5;" x1="926" x2="1011" y1="555" y2="555"/><text fill="#000000" font-family="sans-serif" font-size="14" lengthAdjust="spacing" textLength="66" x="931" y="574.1074">Date start,</text><text fill="#000000" font-family="sans-serif" font-size="14" lengthAdjust="spacing" textLength="58" x="931" y="592.7285">Date end</text><line style="stroke:#181818;stroke-width:0.5;" x1="926" x2="1011" y1="600.2422" y2="600.2422"/></g><!--reverse link Serie to Event--><g id="link_Serie_Event"><path codeLine="19" d="M543.0654,129.1916 C542.0254,147.9416 542.48,157.2 543.09,176.96 " fill="none" id="Serie-backto-Event" style="stroke:#181818;stroke-width:1.0;"/><polygon fill="none" points="543.73,117.21,539.4038,122.9793,543.0654,129.1916,547.3916,123.4223,543.73,117.21" style="stroke:#181818;stroke-width:1.0;"/><text fill="#000000" font-family="sans-serif" font-size="13" lengthAdjust="spacing" textLength="22" x="520.0578" y="135.9327">0..1</text><text fill="#000000" font-family="sans-serif" font-size="13" lengthAdjust="spacing" textLength="20" x="520.779" y="165.8469">0..*</text></g><!--reverse link Serie to Event--><g id="link_Serie_Event"><path codeLine="20" d="M568.6628,129.1894 C569.7628,147.9394 569.29,157.2 568.64,176.96 " fill="none" id="Serie-backto-Event-1" style="stroke:#181818;stroke-width:1.0;"/><polygon fill="none" points="567.96,117.21,564.3183,123.434,568.6628,129.1894,572.3045,122.9654,567.96,117.21" style="stroke:#181818;stroke-width:1.0;"/><text fill="#000000" font-family="sans-serif" font-size="13" lengthAdjust="spacing" textLength="7" x="562.6341" y="165.8469">1</text></g><!--reverse link Event to Herkunft--><g id="link_Event_Herkunft"><path codeLine="26" d="M461.8691,302.5924 C414.1591,330.1524 365.66,358.17 321.94,383.43 " fill="none" id="Event-backto-Herkunft" style="stroke:#181818;stroke-width:1.0;"/><polygon fill="none" points="472.26,296.59,465.0637,296.1276,461.8691,302.5924,469.0653,303.0548,472.26,296.59" style="stroke:#181818;stroke-width:1.0;"/><text fill="#000000" font-family="sans-serif" font-size="13" lengthAdjust="spacing" textLength="7" x="457.5347" y="297.2416">1</text><text fill="#000000" font-family="sans-serif" font-size="13" lengthAdjust="spacing" textLength="7" x="320.3735" y="376.2421">1</text></g><!--reverse link Event to Sichtbarkeit--><g id="link_Event_Sichtbarkeit"><path codeLine="32" d="M522.4828,329.1551 C512.7128,353.0151 506.79,367.48 498.81,386.98 " fill="none" id="Event-backto-Sichtbarkeit" style="stroke:#181818;stroke-width:1.0;"/><polygon fill="none" points="527.03,318.05,521.0547,322.0868,522.4828,329.1551,528.4581,325.1183,527.03,318.05" style="stroke:#181818;stroke-width:1.0;"/><text fill="#000000" font-family="sans-serif" font-size="13" lengthAdjust="spacing" textLength="7" x="516.7331" y="340.2399">1</text><text fill="#000000" font-family="sans-serif" font-size="13" lengthAdjust="spacing" textLength="7" x="493.7413" y="375.8016">1</text></g><!--reverse link Event to Aufgabe--><g id="link_Event_Aufgabe"><path d="M653.9453,307.6268 C693.8853,331.6468 727,351.62 770.5,378 C776.29,381.51 782.36,385.2 788.39,388.87 " fill="none" id="Event-backto-Aufgabe" style="stroke:#181818;stroke-width:1.0;"/><polygon fill="none" points="638.52,298.35,650.853,312.7686,657.0376,302.485,638.52,298.35" style="stroke:#181818;stroke-width:1.0;"/></g><!--reverse link Machbar to Aufgabe--><g id="link_Machbar_Aufgabe"><path d="M824.4025,298.948 C827.9525,329.278 831.12,356.38 834.67,386.76 " fill="none" id="Machbar-backto-Aufgabe" style="stroke:#181818;stroke-width:1.0;stroke-dasharray:7.0,7.0;"/><polygon fill="none" points="822.31,281.07,818.4432,299.6455,830.3619,298.2504,822.31,281.07" style="stroke:#181818;stroke-width:1.0;"/></g><!--reverse link Termin to GeplanteAufgabe--><g id="link_Termin_GeplanteAufgabe"><path d="M718.508,469.7346 C734.478,496.2846 747.29,517.6 761.49,541.21 " fill="none" id="Termin-backto-GeplanteAufgabe" style="stroke:#181818;stroke-width:1.0;"/><polygon fill="none" points="709.23,454.31,713.3665,472.8273,723.6495,466.6419,709.23,454.31" style="stroke:#181818;stroke-width:1.0;"/></g><!--reverse link Machbar to GeplanteAufgabe--><g id="link_Machbar_GeplanteAufgabe"><path d="M860.6136,294.8322 C896.5636,337.4022 936.16,400.16 905.5,463 C888.49,497.87 853.06,524.26 823.48,541.38 " fill="none" id="Machbar-backto-GeplanteAufgabe" style="stroke:#181818;stroke-width:1.0;stroke-dasharray:7.0,7.0;"/><polygon fill="none" points="849,281.08,856.0296,298.7034,865.1977,290.961,849,281.08" style="stroke:#181818;stroke-width:1.0;"/></g><!--reverse link Event to Termin--><g id="link_Event_Termin"><path d="M621.1035,332.2173 C639.8035,356.0773 648.74,367.48 664.02,386.98 " fill="none" id="Event-backto-Termin" style="stroke:#181818;stroke-width:1.0;"/><polygon fill="none" points="610,318.05,616.381,335.9185,625.8259,328.5162,610,318.05" style="stroke:#181818;stroke-width:1.0;"/></g><!--reverse link Event to Zuordnung--><g id="link_Event_Zuordnung"><path codeLine="66" d="M460.6966,274.7936 C378.8666,298.3036 262.58,334.19 155.5,378 C149.83,380.32 144.02,382.86 138.23,385.52 " fill="none" id="Event-backto-Zuordnung" style="stroke:#181818;stroke-width:1.0;"/><polygon fill="none" points="472.23,271.48,465.3588,269.2923,460.6966,274.7936,467.5678,276.9813,472.23,271.48" style="stroke:#181818;stroke-width:1.0;"/><text fill="#000000" font-family="sans-serif" font-size="13" lengthAdjust="spacing" textLength="7" x="457.502" y="269.8953">1</text><text fill="#000000" font-family="sans-serif" font-size="13" lengthAdjust="spacing" textLength="20" x="146.0397" y="378.067">0..*</text></g><!--reverse link Benutzer to Zuordnung--><g id="link_Benutzer_Zuordnung"><path codeLine="67" d="M137.727,300.8446 C123.097,327.4446 110.03,351.23 95.42,377.8 " fill="none" id="Benutzer-backto-Zuordnung" style="stroke:#181818;stroke-width:1.0;"/><polygon fill="none" points="143.51,290.33,137.1136,293.6596,137.727,300.8446,144.1234,297.515,143.51,290.33" style="stroke:#181818;stroke-width:1.0;"/><text fill="#000000" font-family="sans-serif" font-size="13" lengthAdjust="spacing" textLength="7" x="132.4537" y="312.222">1</text><text fill="#000000" font-family="sans-serif" font-size="13" lengthAdjust="spacing" textLength="20" x="77.4791" y="366.6722">0..*</text></g><!--reverse link Benutzer to Herkunft--><g id="link_Benutzer_Herkunft"><path codeLine="68" d="M160.2023,302.0981 C154.4423,358.5681 150.59,440.5 180.5,440.5 " fill="none" id="Benutzer-backto-Herkunft" style="stroke:#181818;stroke-width:1.0;"/><polygon fill="none" points="161.42,290.16,156.8318,295.7231,160.2023,302.0981,164.7905,296.5349,161.42,290.16" style="stroke:#181818;stroke-width:1.0;"/><text fill="#000000" font-family="sans-serif" font-size="13" lengthAdjust="spacing" textLength="7" x="153.0526" y="312.3458">1</text><text fill="#000000" font-family="sans-serif" font-size="13" lengthAdjust="spacing" textLength="20" x="153.4078" y="438.4316">0..*</text></g><!--reverse link Serie to Wiederholung--><g id="link_Serie_Wiederholung"><path codeLine="70" d="M669.1291,100.1001 C735.6691,122.3801 812.81,148.74 890.5,177 C911.28,184.56 933.3,192.84 954.56,200.97 " fill="none" id="Serie-backto-Wiederholung" style="stroke:#181818;stroke-width:1.0;"/><polygon fill="none" points="657.75,96.29,662.1695,101.9881,669.1291,100.1001,664.7096,94.402,657.75,96.29" style="stroke:#181818;stroke-width:1.0;"/><text fill="#000000" font-family="sans-serif" font-size="13" lengthAdjust="spacing" textLength="7" x="657.75" y="93.3183">1</text><text fill="#000000" font-family="sans-serif" font-size="13" lengthAdjust="spacing" textLength="7" x="938.4154" y="193.787">1</text></g><!--reverse link Termin to Zeitraum--><g id="link_Termin_Zeitraum"><path codeLine="73" d="M763.8392,459.603 C816.2692,486.473 878.55,518.4 924.65,542.02 " fill="none" id="Termin-backto-Zeitraum" style="stroke:#181818;stroke-width:1.0;"/><polygon fill="none" points="753.16,454.13,756.6753,460.4263,763.8392,459.603,760.324,453.3068,753.16,454.13" style="stroke:#181818;stroke-width:1.0;"/><text fill="#000000" font-family="sans-serif" font-size="13" lengthAdjust="spacing" textLength="7" x="756.876" y="475.7224">1</text><text fill="#000000" font-family="sans-serif" font-size="13" lengthAdjust="spacing" textLength="7" x="910.1036" y="533.9554">1</text></g><!--reverse link Wiederholung to Zeitraum--><g id="link_Wiederholung_Zeitraum"><path codeLine="74" d="M910.5,276.5 C902.71,276.5 916.41,286.29 917.5,294 C922.83,331.9 929.04,340.46 936.5,378 C946.36,427.62 955.94,485.03 962,522.9 " fill="none" id="Wiederholung-backto-Zeitraum" style="stroke:#181818;stroke-width:1.0;"/><polygon fill="#181818" points="916.5,276.5,907.5,272.5,911.5,276.5,907.5,280.5,916.5,276.5" style="stroke:#181818;stroke-width:1.0;"/></g><!--SRC=[bPF1Rjim38RlVWeXftHOY_Ng1IbQR6iBRDYX0mRqHjjCB4IM3ObQXmPxzr6cvSX5UwWleYJouq-JgWruhsxG1df6TomKVm_ajDqh2nr-p0y6TdtgNNC7liMc-5VKO_03EesRAuL_2MtZrTS_Q6ahA3wDEy5y0KBb2Toq_wsnGTVs9Z3yATimke3AauEQb2GPeGjvf0cDWExG7OBTaMedOvAjwvOgS0VKf7osMLHrWxvk7UgA4yl5pu5qRy5inigsKc3KD1fgzUdYudAb-lFpqVom4d5oMvODxY0O6i_4wJ9v5DeIkXtKE4kMalP8B4F75gpFohaTCQTmLYaXhoaqn-Mb2b9xIeVV0cCJa_5LtvlNqJacn_-0kkNZcNoB17QTeQH9rs6tXmgNaw1qDnZisF9BpZWE3K9ZjCKJv1O70vpv9UmNkaxRLsZgMCJeazfyhYIL1QnRp_UFNDWGx86kgtNCpoN4HVeEnk3iWFSssWv2jqu6Ut_dwZSnP7jIF2bRL2rvKw1wdepFfwZ7m4_9pX9JVrGr6Q99Vk7uYBBGYNOiyYSrsgmW-htihSpfdBAOixtR8qrVMMP3Ep-DR9RoBh2WwIVb7gcC8dSjoxVQe3OSbpR_0G00]--></g></svg>