<?xml version="1.0" encoding="us-ascii" standalone="no"?><svg xmlns="http://www.w3.org/2000/svg" xmlns:xlink="http://www.w3.org/1999/xlink" contentStyleType="text/css" height="492px" preserveAspectRatio="none" style="width:984px;height:492px;background:#FFFFFF;" version="1.1" viewBox="0 0 984 492" width="984.8px" zoomAndPan="magnify"><defs/><g><!--class Benutzer--><g id="elem_Benutzer"><rect codeLine="1" fill="#F1F1F1" height="68.1938" id="Benutzer" rx="2" ry="2" style="stroke:#181818;stroke-width:0.4000000000000001;" width="128.8" x="99.2" y="164"/><ellipse cx="137.8" cy="176.8" fill="#ADD1B2" rx="8.8" ry="8.8" style="stroke:#181818;stroke-width:0.8000000000000002;"/><path d="M140.0125,173.5 Q140.1375,173.325 140.2875,173.2375 Q140.4375,173.15 140.6125,173.15 Q140.9125,173.15 141.1,173.3625 Q141.2875,173.5625 141.2875,174.05 L141.2875,175.2125 Q141.2875,175.7 141.1,175.9125 Q140.9125,176.125 140.6125,176.125 Q140.3375,176.125 140.175,175.9625 Q140.0125,175.8125 139.925,175.4 Q139.8875,175.1125 139.7375,174.9625 Q139.475,174.6625 138.9875,174.4875 Q138.5,174.3125 138,174.3125 Q137.3875,174.3125 136.875,174.575 Q136.375,174.8375 135.975,175.4375 Q135.5875,176.0375 135.5875,176.8625 L135.5875,177.7375 Q135.5875,178.725 136.3,179.3875 Q137.0125,180.0375 138.2875,180.0375 Q139.0375,180.0375 139.5625,179.8375 Q139.875,179.7125 140.2125,179.3625 Q140.425,179.15 140.5375,179.0875 Q140.6625,179.025 140.825,179.025 Q141.0875,179.025 141.2875,179.2375 Q141.5,179.4375 141.5,179.7125 Q141.5,179.9875 141.225,180.3125 Q140.825,180.775 140.1875,181.0375 Q139.325,181.4 138.2875,181.4 Q137.075,181.4 136.1125,180.9 Q135.325,180.5 134.775,179.65 Q134.225,178.7875 134.225,177.7625 L134.225,176.8375 Q134.225,175.775 134.7125,174.8625 Q135.2125,173.9375 136.0875,173.45 Q136.9625,172.95 137.95,172.95 Q138.5375,172.95 139.05,173.0875 Q139.575,173.2125 140.0125,173.5 Z " fill="#000000"/><text fill="#000000" font-family="sans-serif" font-size="11.2" lengthAdjust="spacing" textLength="44.8" x="154.2" y="181.4375">Benutzer</text><line style="stroke:#181818;stroke-width:0.4000000000000001;" x1="100" x2="227.2" y1="189.6" y2="189.6"/><text fill="#000000" font-family="sans-serif" font-size="11.2" lengthAdjust="spacing" textLength="64" x="104" y="204.8859">String name,</text><text fill="#000000" font-family="sans-serif" font-size="11.2" lengthAdjust="spacing" textLength="119.2" x="104" y="219.7828">String passwordHashed</text><line style="stroke:#181818;stroke-width:0.4000000000000001;" x1="100" x2="227.2" y1="225.7938" y2="225.7938"/></g><!--class SerienEventController--><g id="elem_SerienEventController"><rect codeLine="5" fill="#F1F1F1" height="83.0906" id="SerienEventController" rx="2" ry="2" style="stroke:#181818;stroke-width:0.4000000000000001;" width="209.6" x="321.2" y="8"/><ellipse cx="333.2" cy="20.8" fill="#ADD1B2" rx="8.8" ry="8.8" style="stroke:#181818;stroke-width:0.8000000000000002;"/><path d="M335.4125,17.5 Q335.5375,17.325 335.6875,17.2375 Q335.8375,17.15 336.0125,17.15 Q336.3125,17.15 336.5,17.3625 Q336.6875,17.5625 336.6875,18.05 L336.6875,19.2125 Q336.6875,19.7 336.5,19.9125 Q336.3125,20.125 336.0125,20.125 Q335.7375,20.125 335.575,19.9625 Q335.4125,19.8125 335.325,19.4 Q335.2875,19.1125 335.1375,18.9625 Q334.875,18.6625 334.3875,18.4875 Q333.9,18.3125 333.4,18.3125 Q332.7875,18.3125 332.275,18.575 Q331.775,18.8375 331.375,19.4375 Q330.9875,20.0375 330.9875,20.8625 L330.9875,21.7375 Q330.9875,22.725 331.7,23.3875 Q332.4125,24.0375 333.6875,24.0375 Q334.4375,24.0375 334.9625,23.8375 Q335.275,23.7125 335.6125,23.3625 Q335.825,23.15 335.9375,23.0875 Q336.0625,23.025 336.225,23.025 Q336.4875,23.025 336.6875,23.2375 Q336.9,23.4375 336.9,23.7125 Q336.9,23.9875 336.625,24.3125 Q336.225,24.775 335.5875,25.0375 Q334.725,25.4 333.6875,25.4 Q332.475,25.4 331.5125,24.9 Q330.725,24.5 330.175,23.65 Q329.625,22.7875 329.625,21.7625 L329.625,20.8375 Q329.625,19.775 330.1125,18.8625 Q330.6125,17.9375 331.4875,17.45 Q332.3625,16.95 333.35,16.95 Q333.9375,16.95 334.45,17.0875 Q334.975,17.2125 335.4125,17.5 Z " fill="#000000"/><text fill="#000000" font-family="sans-serif" font-size="11.2" lengthAdjust="spacing" textLength="111.2" x="344.4" y="25.4375">SerienEventController</text><rect fill="#FFFFFF" height="14.3688" style="stroke:#181818;stroke-width:0.8000000000000002;stroke-dasharray:2.0,2.0;" width="71.2" x="462" y="5.6"/><text fill="#000000" font-family="sans-serif" font-size="9.6" font-style="italic" lengthAdjust="spacing" textLength="69.6" x="462.8" y="16.7594">? extends Event</text><line style="stroke:#181818;stroke-width:0.4000000000000001;" x1="322" x2="530" y1="33.6" y2="33.6"/><text fill="#000000" font-family="sans-serif" font-size="11.2" lengthAdjust="spacing" textLength="40.8" x="326" y="48.8859">? event,</text><text fill="#000000" font-family="sans-serif" font-size="11.2" lengthAdjust="spacing" textLength="52.8" x="326" y="63.7828">Date start,</text><text fill="#000000" font-family="sans-serif" font-size="11.2" lengthAdjust="spacing" textLength="140.8" x="326" y="78.6797">Wiederholung wiederholung</text><line style="stroke:#181818;stroke-width:0.4000000000000001;" x1="322" x2="530" y1="84.6906" y2="84.6906"/></g><!--class Event--><g id="elem_Event"><rect codeLine="11" fill="#F1F1F1" height="112.8844" id="Event" rx="2" ry="2" style="stroke:#181818;stroke-width:0.4000000000000001;" width="205.6" x="323.2" y="141.6"/><ellipse cx="408.6" cy="154.4" fill="#A9DCDF" rx="8.8" ry="8.8" style="stroke:#181818;stroke-width:0.8000000000000002;"/><path d="M410.35,155.8125 L407.0375,155.8125 L406.7,156.6375 L407.0375,156.6375 Q407.525,156.6375 407.7375,156.825 Q407.95,157.0125 407.95,157.325 Q407.95,157.625 407.7375,157.8125 Q407.525,158 407.0375,158 L405.2,158 Q404.7125,158 404.5125,157.8125 Q404.3,157.625 404.3,157.3125 Q404.3,157.0125 404.525,156.825 Q404.7375,156.625 405.2375,156.6375 L407.375,151.3125 L406.4875,151.3125 Q406,151.3125 405.7875,151.125 Q405.575,150.9375 405.575,150.625 Q405.575,150.325 405.7875,150.1375 Q406,149.95 406.4875,149.95 L409.425,149.95 L412.1375,156.6375 Q412.6125,156.6375 412.7625,156.75 Q413.075,156.9625 413.075,157.325 Q413.075,157.625 412.8625,157.8125 Q412.6625,158 412.175,158 L410.3375,158 Q409.85,158 409.6375,157.8125 Q409.425,157.625 409.425,157.3125 Q409.425,157.0125 409.6375,156.825 Q409.85,156.6375 410.3375,156.6375 L410.675,156.6375 L410.35,155.8125 Z M409.775,154.45 L408.6875,151.75 L407.5875,154.45 L409.775,154.45 Z " fill="#000000"/><text fill="#000000" font-family="sans-serif" font-size="11.2" font-style="italic" lengthAdjust="spacing" textLength="28" x="425" y="159.0375">Event</text><line style="stroke:#181818;stroke-width:0.4000000000000001;" x1="324" x2="528" y1="167.2" y2="167.2"/><text fill="#000000" font-family="sans-serif" font-size="11.2" lengthAdjust="spacing" textLength="53.6" x="328" y="182.4859">String titel,</text><text fill="#000000" font-family="sans-serif" font-size="11.2" lengthAdjust="spacing" textLength="90.4" x="328" y="197.3828">Herkunft herkunft,</text><text fill="#000000" font-family="sans-serif" font-size="11.2" lengthAdjust="spacing" textLength="123.2" x="328" y="212.2797">Sichtbarkeit sichtbarkeit,</text><text fill="#000000" font-family="sans-serif" font-size="11.2" lengthAdjust="spacing" textLength="105.6" x="328" y="227.1766">String Beschreibung,</text><text fill="#000000" font-family="sans-serif" font-size="11.2" lengthAdjust="spacing" textLength="196" x="328" y="242.0734">Optional&lt;SerienEventController&gt; Serie</text><line style="stroke:#181818;stroke-width:0.4000000000000001;" x1="324" x2="528" y1="248.0844" y2="248.0844"/></g><!--class Herkunft--><g id="elem_Herkunft"><rect codeLine="22" fill="#F1F1F1" height="53.2969" id="Herkunft" rx="2" ry="2" style="stroke:#181818;stroke-width:0.4000000000000001;" width="124.8" x="145.2" y="310"/><ellipse cx="182.2" cy="322.8" fill="#B4A7E5" rx="8.8" ry="8.8" style="stroke:#181818;stroke-width:0.8000000000000002;"/><path d="M182.9625,320.1125 L182.9625,325.4375 L184.3375,325.4375 Q184.825,325.4375 185.0375,325.625 Q185.25,325.8125 185.25,326.125 Q185.25,326.425 185.0375,326.6125 Q184.825,326.8 184.3375,326.8 L180.225,326.8 Q179.7375,326.8 179.525,326.6125 Q179.3125,326.425 179.3125,326.1125 Q179.3125,325.8125 179.525,325.625 Q179.7375,325.4375 180.225,325.4375 L181.6,325.4375 L181.6,320.1125 L180.225,320.1125 Q179.7375,320.1125 179.525,319.925 Q179.3125,319.7375 179.3125,319.425 Q179.3125,319.125 179.525,318.9375 Q179.7375,318.75 180.225,318.75 L184.3375,318.75 Q184.825,318.75 185.0375,318.9375 Q185.25,319.125 185.25,319.425 Q185.25,319.7375 185.0375,319.925 Q184.825,320.1125 184.3375,320.1125 L182.9625,320.1125 Z " fill="#000000"/><text fill="#000000" font-family="sans-serif" font-size="11.2" font-style="italic" lengthAdjust="spacing" textLength="44" x="198.6" y="327.4375">Herkunft</text><line style="stroke:#181818;stroke-width:0.4000000000000001;" x1="146" x2="269.2" y1="335.6" y2="335.6"/><line style="stroke:#181818;stroke-width:0.4000000000000001;" x1="146" x2="269.2" y1="342" y2="342"/><text fill="#000000" font-family="sans-serif" font-size="11.2" lengthAdjust="spacing" textLength="115.2" x="150" y="357.2859">getBesitzer(): Benutzer</text></g><!--class Sichtbarkeit--><g id="elem_Sichtbarkeit"><rect codeLine="28" fill="#F1F1F1" height="53.2969" id="Sichtbarkeit" rx="2" ry="2" style="stroke:#181818;stroke-width:0.4000000000000001;" width="167.2" x="304.8" y="309.6"/><ellipse cx="355" cy="322.4" fill="#B4A7E5" rx="8.8" ry="8.8" style="stroke:#181818;stroke-width:0.8000000000000002;"/><path d="M355.7625,319.7125 L355.7625,325.0375 L357.1375,325.0375 Q357.625,325.0375 357.8375,325.225 Q358.05,325.4125 358.05,325.725 Q358.05,326.025 357.8375,326.2125 Q357.625,326.4 357.1375,326.4 L353.025,326.4 Q352.5375,326.4 352.325,326.2125 Q352.1125,326.025 352.1125,325.7125 Q352.1125,325.4125 352.325,325.225 Q352.5375,325.0375 353.025,325.0375 L354.4,325.0375 L354.4,319.7125 L353.025,319.7125 Q352.5375,319.7125 352.325,319.525 Q352.1125,319.3375 352.1125,319.025 Q352.1125,318.725 352.325,318.5375 Q352.5375,318.35 353.025,318.35 L357.1375,318.35 Q357.625,318.35 357.8375,318.5375 Q358.05,318.725 358.05,319.025 Q358.05,319.3375 357.8375,319.525 Q357.625,319.7125 357.1375,319.7125 L355.7625,319.7125 Z " fill="#000000"/><text fill="#000000" font-family="sans-serif" font-size="11.2" font-style="italic" lengthAdjust="spacing" textLength="60" x="371.4" y="327.0375">Sichtbarkeit</text><line style="stroke:#181818;stroke-width:0.4000000000000001;" x1="305.6" x2="471.2" y1="335.2" y2="335.2"/><line style="stroke:#181818;stroke-width:0.4000000000000001;" x1="305.6" x2="471.2" y1="341.6" y2="341.6"/><text fill="#000000" font-family="sans-serif" font-size="11.2" lengthAdjust="spacing" textLength="157.6" x="309.6" y="356.8859">istSichtbarFuer(Benutzer): bool</text></g><!--class Termin--><g id="elem_Termin"><rect codeLine="34" fill="#F1F1F1" height="38.4" id="Termin" rx="2" ry="2" style="stroke:#181818;stroke-width:0.4000000000000001;" width="60.8" x="521.2" y="433.2"/><ellipse cx="533.2" cy="446" fill="#ADD1B2" rx="8.8" ry="8.8" style="stroke:#181818;stroke-width:0.8000000000000002;"/><path d="M535.4125,442.7 Q535.5375,442.525 535.6875,442.4375 Q535.8375,442.35 536.0125,442.35 Q536.3125,442.35 536.5,442.5625 Q536.6875,442.7625 536.6875,443.25 L536.6875,444.4125 Q536.6875,444.9 536.5,445.1125 Q536.3125,445.325 536.0125,445.325 Q535.7375,445.325 535.575,445.1625 Q535.4125,445.0125 535.325,444.6 Q535.2875,444.3125 535.1375,444.1625 Q534.875,443.8625 534.3875,443.6875 Q533.9,443.5125 533.4,443.5125 Q532.7875,443.5125 532.275,443.775 Q531.775,444.0375 531.375,444.6375 Q530.9875,445.2375 530.9875,446.0625 L530.9875,446.9375 Q530.9875,447.925 531.7,448.5875 Q532.4125,449.2375 533.6875,449.2375 Q534.4375,449.2375 534.9625,449.0375 Q535.275,448.9125 535.6125,448.5625 Q535.825,448.35 535.9375,448.2875 Q536.0625,448.225 536.225,448.225 Q536.4875,448.225 536.6875,448.4375 Q536.9,448.6375 536.9,448.9125 Q536.9,449.1875 536.625,449.5125 Q536.225,449.975 535.5875,450.2375 Q534.725,450.6 533.6875,450.6 Q532.475,450.6 531.5125,450.1 Q530.725,449.7 530.175,448.85 Q529.625,447.9875 529.625,446.9625 L529.625,446.0375 Q529.625,444.975 530.1125,444.0625 Q530.6125,443.1375 531.4875,442.65 Q532.3625,442.15 533.35,442.15 Q533.9375,442.15 534.45,442.2875 Q534.975,442.4125 535.4125,442.7 Z " fill="#000000"/><text fill="#000000" font-family="sans-serif" font-size="11.2" lengthAdjust="spacing" textLength="35.2" x="544.4" y="450.6375">Termin</text><line style="stroke:#181818;stroke-width:0.4000000000000001;" x1="522" x2="581.2" y1="458.8" y2="458.8"/><line style="stroke:#181818;stroke-width:0.4000000000000001;" x1="522" x2="581.2" y1="465.2" y2="465.2"/></g><!--class Geplant--><g id="elem_Geplant"><rect codeLine="54" fill="#F1F1F1" height="53.2969" id="Geplant" rx="2" ry="2" style="stroke:#181818;stroke-width:0.4000000000000001;" width="102.4" x="500.4" y="309.6"/><ellipse cx="528.96" cy="322.4" fill="#A9DCDF" rx="8.8" ry="8.8" style="stroke:#181818;stroke-width:0.8000000000000002;"/><path d="M530.71,323.8125 L527.3975,323.8125 L527.06,324.6375 L527.3975,324.6375 Q527.885,324.6375 528.0975,324.825 Q528.31,325.0125 528.31,325.325 Q528.31,325.625 528.0975,325.8125 Q527.885,326 527.3975,326 L525.56,326 Q525.0725,326 524.8725,325.8125 Q524.66,325.625 524.66,325.3125 Q524.66,325.0125 524.885,324.825 Q525.0975,324.625 525.5975,324.6375 L527.735,319.3125 L526.8475,319.3125 Q526.36,319.3125 526.1475,319.125 Q525.935,318.9375 525.935,318.625 Q525.935,318.325 526.1475,318.1375 Q526.36,317.95 526.8475,317.95 L529.785,317.95 L532.4975,324.6375 Q532.9725,324.6375 533.1225,324.75 Q533.435,324.9625 533.435,325.325 Q533.435,325.625 533.2225,325.8125 Q533.0225,326 532.535,326 L530.6975,326 Q530.21,326 529.9975,325.8125 Q529.785,325.625 529.785,325.3125 Q529.785,325.0125 529.9975,324.825 Q530.21,324.6375 530.6975,324.6375 L531.035,324.6375 L530.71,323.8125 Z M530.135,322.45 L529.0475,319.75 L527.9475,322.45 L530.135,322.45 Z " fill="#000000"/><text fill="#000000" font-family="sans-serif" font-size="11.2" font-style="italic" lengthAdjust="spacing" textLength="40" x="543.84" y="327.0375">Geplant</text><line style="stroke:#181818;stroke-width:0.4000000000000001;" x1="501.2" x2="602" y1="335.2" y2="335.2"/><text fill="#000000" font-family="sans-serif" font-size="11.2" lengthAdjust="spacing" textLength="92.8" x="505.2" y="350.4859">Zeitraum zeitraum;</text><line style="stroke:#181818;stroke-width:0.4000000000000001;" x1="501.2" x2="602" y1="356.4969" y2="356.4969"/></g><!--class Machbar--><g id="elem_Machbar"><rect codeLine="37" fill="#F1F1F1" height="53.2969" id="Machbar" rx="2" ry="2" style="stroke:#181818;stroke-width:0.4000000000000001;" width="88" x="610.8" y="171.2"/><ellipse cx="630.72" cy="184" fill="#B4A7E5" rx="8.8" ry="8.8" style="stroke:#181818;stroke-width:0.8000000000000002;"/><path d="M631.4825,181.3125 L631.4825,186.6375 L632.8575,186.6375 Q633.345,186.6375 633.5575,186.825 Q633.77,187.0125 633.77,187.325 Q633.77,187.625 633.5575,187.8125 Q633.345,188 632.8575,188 L628.745,188 Q628.2575,188 628.045,187.8125 Q627.8325,187.625 627.8325,187.3125 Q627.8325,187.0125 628.045,186.825 Q628.2575,186.6375 628.745,186.6375 L630.12,186.6375 L630.12,181.3125 L628.745,181.3125 Q628.2575,181.3125 628.045,181.125 Q627.8325,180.9375 627.8325,180.625 Q627.8325,180.325 628.045,180.1375 Q628.2575,179.95 628.745,179.95 L632.8575,179.95 Q633.345,179.95 633.5575,180.1375 Q633.77,180.325 633.77,180.625 Q633.77,180.9375 633.5575,181.125 Q633.345,181.3125 632.8575,181.3125 L631.4825,181.3125 Z " fill="#000000"/><text fill="#000000" font-family="sans-serif" font-size="11.2" font-style="italic" lengthAdjust="spacing" textLength="44.8" x="643.68" y="188.6375">Machbar</text><line style="stroke:#181818;stroke-width:0.4000000000000001;" x1="611.6" x2="698" y1="196.8" y2="196.8"/><line style="stroke:#181818;stroke-width:0.4000000000000001;" x1="611.6" x2="698" y1="203.2" y2="203.2"/><text fill="#000000" font-family="sans-serif" font-size="11.2" lengthAdjust="spacing" textLength="78.4" x="615.6" y="218.4859">istGetan(): bool</text></g><!--class Aufgabe--><g id="elem_Aufgabe"><rect codeLine="41" fill="#F1F1F1" height="53.2969" id="Aufgabe" rx="2" ry="2" style="stroke:#181818;stroke-width:0.4000000000000001;" width="80" x="630.8" y="309.6"/><ellipse cx="648.2" cy="322.4" fill="#ADD1B2" rx="8.8" ry="8.8" style="stroke:#181818;stroke-width:0.8000000000000002;"/><path d="M650.4125,319.1 Q650.5375,318.925 650.6875,318.8375 Q650.8375,318.75 651.0125,318.75 Q651.3125,318.75 651.5,318.9625 Q651.6875,319.1625 651.6875,319.65 L651.6875,320.8125 Q651.6875,321.3 651.5,321.5125 Q651.3125,321.725 651.0125,321.725 Q650.7375,321.725 650.575,321.5625 Q650.4125,321.4125 650.325,321 Q650.2875,320.7125 650.1375,320.5625 Q649.875,320.2625 649.3875,320.0875 Q648.9,319.9125 648.4,319.9125 Q647.7875,319.9125 647.275,320.175 Q646.775,320.4375 646.375,321.0375 Q645.9875,321.6375 645.9875,322.4625 L645.9875,323.3375 Q645.9875,324.325 646.7,324.9875 Q647.4125,325.6375 648.6875,325.6375 Q649.4375,325.6375 649.9625,325.4375 Q650.275,325.3125 650.6125,324.9625 Q650.825,324.75 650.9375,324.6875 Q651.0625,324.625 651.225,324.625 Q651.4875,324.625 651.6875,324.8375 Q651.9,325.0375 651.9,325.3125 Q651.9,325.5875 651.625,325.9125 Q651.225,326.375 650.5875,326.6375 Q649.725,327 648.6875,327 Q647.475,327 646.5125,326.5 Q645.725,326.1 645.175,325.25 Q644.625,324.3875 644.625,323.3625 L644.625,322.4375 Q644.625,321.375 645.1125,320.4625 Q645.6125,319.5375 646.4875,319.05 Q647.3625,318.55 648.35,318.55 Q648.9375,318.55 649.45,318.6875 Q649.975,318.8125 650.4125,319.1 Z " fill="#000000"/><text fill="#000000" font-family="sans-serif" font-size="11.2" lengthAdjust="spacing" textLength="42.4" x="660.6" y="327.0375">Aufgabe</text><line style="stroke:#181818;stroke-width:0.4000000000000001;" x1="631.6" x2="710" y1="335.2" y2="335.2"/><text fill="#000000" font-family="sans-serif" font-size="11.2" lengthAdjust="spacing" textLength="70.4" x="635.6" y="350.4859">Date deadline</text><line style="stroke:#181818;stroke-width:0.4000000000000001;" x1="631.6" x2="710" y1="356.4969" y2="356.4969"/></g><!--class GeplanteAufgabe--><g id="elem_GeplanteAufgabe"><rect codeLine="45" fill="#F1F1F1" height="38.4" id="GeplanteAufgabe" rx="2" ry="2" style="stroke:#181818;stroke-width:0.4000000000000001;" width="114.4" x="621.6" y="433.2"/><ellipse cx="633.6" cy="446" fill="#ADD1B2" rx="8.8" ry="8.8" style="stroke:#181818;stroke-width:0.8000000000000002;"/><path d="M635.8125,442.7 Q635.9375,442.525 636.0875,442.4375 Q636.2375,442.35 636.4125,442.35 Q636.7125,442.35 636.9,442.5625 Q637.0875,442.7625 637.0875,443.25 L637.0875,444.4125 Q637.0875,444.9 636.9,445.1125 Q636.7125,445.325 636.4125,445.325 Q636.1375,445.325 635.975,445.1625 Q635.8125,445.0125 635.725,444.6 Q635.6875,444.3125 635.5375,444.1625 Q635.275,443.8625 634.7875,443.6875 Q634.3,443.5125 633.8,443.5125 Q633.1875,443.5125 632.675,443.775 Q632.175,444.0375 631.775,444.6375 Q631.3875,445.2375 631.3875,446.0625 L631.3875,446.9375 Q631.3875,447.925 632.1,448.5875 Q632.8125,449.2375 634.0875,449.2375 Q634.8375,449.2375 635.3625,449.0375 Q635.675,448.9125 636.0125,448.5625 Q636.225,448.35 636.3375,448.2875 Q636.4625,448.225 636.625,448.225 Q636.8875,448.225 637.0875,448.4375 Q637.3,448.6375 637.3,448.9125 Q637.3,449.1875 637.025,449.5125 Q636.625,449.975 635.9875,450.2375 Q635.125,450.6 634.0875,450.6 Q632.875,450.6 631.9125,450.1 Q631.125,449.7 630.575,448.85 Q630.025,447.9875 630.025,446.9625 L630.025,446.0375 Q630.025,444.975 630.5125,444.0625 Q631.0125,443.1375 631.8875,442.65 Q632.7625,442.15 633.75,442.15 Q634.3375,442.15 634.85,442.2875 Q635.375,442.4125 635.8125,442.7 Z " fill="#000000"/><text fill="#000000" font-family="sans-serif" font-size="11.2" lengthAdjust="spacing" textLength="88.8" x="644.8" y="450.6375">GeplanteAufgabe</text><line style="stroke:#181818;stroke-width:0.4000000000000001;" x1="622.4" x2="735.2" y1="458.8" y2="458.8"/><line style="stroke:#181818;stroke-width:0.4000000000000001;" x1="622.4" x2="735.2" y1="465.2" y2="465.2"/></g><!--class Wiederholung--><g id="elem_Wiederholung"><rect codeLine="49" fill="#F1F1F1" height="68.1938" id="Wiederholung" rx="2" ry="2" style="stroke:#181818;stroke-width:0.4000000000000001;" width="245.6" x="733.6" y="164"/><ellipse cx="817.4" cy="176.8" fill="#B4A7E5" rx="8.8" ry="8.8" style="stroke:#181818;stroke-width:0.8000000000000002;"/><path d="M818.1625,174.1125 L818.1625,179.4375 L819.5375,179.4375 Q820.025,179.4375 820.2375,179.625 Q820.45,179.8125 820.45,180.125 Q820.45,180.425 820.2375,180.6125 Q820.025,180.8 819.5375,180.8 L815.425,180.8 Q814.9375,180.8 814.725,180.6125 Q814.5125,180.425 814.5125,180.1125 Q814.5125,179.8125 814.725,179.625 Q814.9375,179.4375 815.425,179.4375 L816.8,179.4375 L816.8,174.1125 L815.425,174.1125 Q814.9375,174.1125 814.725,173.925 Q814.5125,173.7375 814.5125,173.425 Q814.5125,173.125 814.725,172.9375 Q814.9375,172.75 815.425,172.75 L819.5375,172.75 Q820.025,172.75 820.2375,172.9375 Q820.45,173.125 820.45,173.425 Q820.45,173.7375 820.2375,173.925 Q820.025,174.1125 819.5375,174.1125 L818.1625,174.1125 Z " fill="#000000"/><text fill="#000000" font-family="sans-serif" font-size="11.2" font-style="italic" lengthAdjust="spacing" textLength="71.2" x="833.8" y="181.4375">Wiederholung</text><line style="stroke:#181818;stroke-width:0.4000000000000001;" x1="734.4" x2="978.4" y1="189.6" y2="189.6"/><line style="stroke:#181818;stroke-width:0.4000000000000001;" x1="734.4" x2="978.4" y1="196" y2="196"/><text fill="#000000" font-family="sans-serif" font-size="11.2" lengthAdjust="spacing" textLength="176" x="738.4" y="211.2859">naechsterZeitpunktAb(Date): Date,</text><text fill="#000000" font-family="sans-serif" font-size="11.2" lengthAdjust="spacing" textLength="236" x="738.4" y="226.1828">alleZeitpunkteInZeitraum(Zeitraum): List&lt;Date&gt;</text></g><!--class Zuordnung--><g id="elem_Zuordnung"><rect codeLine="58" fill="#F1F1F1" height="68.1938" id="Zuordnung" rx="2" ry="2" style="stroke:#181818;stroke-width:0.4000000000000001;" width="104.8" x="5.6" y="302.4"/><ellipse cx="28.4" cy="315.2" fill="#ADD1B2" rx="8.8" ry="8.8" style="stroke:#181818;stroke-width:0.8000000000000002;"/><path d="M30.6125,311.9 Q30.7375,311.725 30.8875,311.6375 Q31.0375,311.55 31.2125,311.55 Q31.5125,311.55 31.7,311.7625 Q31.8875,311.9625 31.8875,312.45 L31.8875,313.6125 Q31.8875,314.1 31.7,314.3125 Q31.5125,314.525 31.2125,314.525 Q30.9375,314.525 30.775,314.3625 Q30.6125,314.2125 30.525,313.8 Q30.4875,313.5125 30.3375,313.3625 Q30.075,313.0625 29.5875,312.8875 Q29.1,312.7125 28.6,312.7125 Q27.9875,312.7125 27.475,312.975 Q26.975,313.2375 26.575,313.8375 Q26.1875,314.4375 26.1875,315.2625 L26.1875,316.1375 Q26.1875,317.125 26.9,317.7875 Q27.6125,318.4375 28.8875,318.4375 Q29.6375,318.4375 30.1625,318.2375 Q30.475,318.1125 30.8125,317.7625 Q31.025,317.55 31.1375,317.4875 Q31.2625,317.425 31.425,317.425 Q31.6875,317.425 31.8875,317.6375 Q32.1,317.8375 32.1,318.1125 Q32.1,318.3875 31.825,318.7125 Q31.425,319.175 30.7875,319.4375 Q29.925,319.8 28.8875,319.8 Q27.675,319.8 26.7125,319.3 Q25.925,318.9 25.375,318.05 Q24.825,317.1875 24.825,316.1625 L24.825,315.2375 Q24.825,314.175 25.3125,313.2625 Q25.8125,312.3375 26.6875,311.85 Q27.5625,311.35 28.55,311.35 Q29.1375,311.35 29.65,311.4875 Q30.175,311.6125 30.6125,311.9 Z " fill="#000000"/><text fill="#000000" font-family="sans-serif" font-size="11.2" lengthAdjust="spacing" textLength="55.2" x="42" y="319.8375">Zuordnung</text><line style="stroke:#181818;stroke-width:0.4000000000000001;" x1="6.4" x2="109.6" y1="328" y2="328"/><text fill="#000000" font-family="sans-serif" font-size="11.2" lengthAdjust="spacing" textLength="95.2" x="10.4" y="343.2859">Benutzer benutzer,</text><text fill="#000000" font-family="sans-serif" font-size="11.2" lengthAdjust="spacing" textLength="60" x="10.4" y="358.1828">Event event</text><line style="stroke:#181818;stroke-width:0.4000000000000001;" x1="6.4" x2="109.6" y1="364.1938" y2="364.1938"/></g><!--class Zeitraum--><g id="elem_Zeitraum"><rect codeLine="63" fill="#F1F1F1" height="68.1938" id="Zeitraum" rx="2" ry="2" style="stroke:#181818;stroke-width:0.4000000000000001;" width="69.6" x="769.6" y="418.4"/><ellipse cx="781.6" cy="431.2" fill="#ADD1B2" rx="8.8" ry="8.8" style="stroke:#181818;stroke-width:0.8000000000000002;"/><path d="M783.8125,427.9 Q783.9375,427.725 784.0875,427.6375 Q784.2375,427.55 784.4125,427.55 Q784.7125,427.55 784.9,427.7625 Q785.0875,427.9625 785.0875,428.45 L785.0875,429.6125 Q785.0875,430.1 784.9,430.3125 Q784.7125,430.525 784.4125,430.525 Q784.1375,430.525 783.975,430.3625 Q783.8125,430.2125 783.725,429.8 Q783.6875,429.5125 783.5375,429.3625 Q783.275,429.0625 782.7875,428.8875 Q782.3,428.7125 781.8,428.7125 Q781.1875,428.7125 780.675,428.975 Q780.175,429.2375 779.775,429.8375 Q779.3875,430.4375 779.3875,431.2625 L779.3875,432.1375 Q779.3875,433.125 780.1,433.7875 Q780.8125,434.4375 782.0875,434.4375 Q782.8375,434.4375 783.3625,434.2375 Q783.675,434.1125 784.0125,433.7625 Q784.225,433.55 784.3375,433.4875 Q784.4625,433.425 784.625,433.425 Q784.8875,433.425 785.0875,433.6375 Q785.3,433.8375 785.3,434.1125 Q785.3,434.3875 785.025,434.7125 Q784.625,435.175 783.9875,435.4375 Q783.125,435.8 782.0875,435.8 Q780.875,435.8 779.9125,435.3 Q779.125,434.9 778.575,434.05 Q778.025,433.1875 778.025,432.1625 L778.025,431.2375 Q778.025,430.175 778.5125,429.2625 Q779.0125,428.3375 779.8875,427.85 Q780.7625,427.35 781.75,427.35 Q782.3375,427.35 782.85,427.4875 Q783.375,427.6125 783.8125,427.9 Z " fill="#000000"/><text fill="#000000" font-family="sans-serif" font-size="11.2" lengthAdjust="spacing" textLength="44" x="792.8" y="435.8375">Zeitraum</text><line style="stroke:#181818;stroke-width:0.4000000000000001;" x1="770.4" x2="838.4" y1="444" y2="444"/><text fill="#000000" font-family="sans-serif" font-size="11.2" lengthAdjust="spacing" textLength="52.8" x="774.4" y="459.2859">Date start,</text><text fill="#000000" font-family="sans-serif" font-size="11.2" lengthAdjust="spacing" textLength="46.4" x="774.4" y="474.1828">Date end</text><line style="stroke:#181818;stroke-width:0.4000000000000001;" x1="770.4" x2="838.4" y1="480.1938" y2="480.1938"/></g><!--reverse link SerienEventController to Event--><g id="link_SerienEventController_Event"><path codeLine="19" d="M416.0523,103.3533 C415.2203,118.3533 415.584,125.76 416.072,141.568 " fill="none" id="SerienEventController-backto-Event" style="stroke:#181818;stroke-width:0.8000000000000002;"/><polygon fill="none" points="416.584,93.768,413.1231,98.3834,416.0523,103.3533,419.5133,98.7379,416.584,93.768" style="stroke:#181818;stroke-width:0.8000000000000002;"/><text fill="#000000" font-family="sans-serif" font-size="10.4" lengthAdjust="spacing" textLength="17.6" x="397.6463" y="108.7462">0..1</text><text fill="#000000" font-family="sans-serif" font-size="10.4" lengthAdjust="spacing" textLength="16" x="398.2232" y="132.6775">0..*</text></g><!--reverse link SerienEventController to Event--><g id="link_SerienEventController_Event"><path codeLine="20" d="M436.5302,103.3515 C437.4102,118.3515 437.032,125.76 436.512,141.568 " fill="none" id="SerienEventController-backto-Event-1" style="stroke:#181818;stroke-width:0.8000000000000002;"/><polygon fill="none" points="435.968,93.768,433.0546,98.7472,436.5302,103.3515,439.4436,98.3723,435.968,93.768" style="stroke:#181818;stroke-width:0.8000000000000002;"/><text fill="#000000" font-family="sans-serif" font-size="10.4" lengthAdjust="spacing" textLength="5.6" x="431.7073" y="132.6775">1</text></g><!--reverse link Event to Herkunft--><g id="link_Event_Herkunft"><path codeLine="26" d="M329.0329,259.537 C300.4569,277.441 278.08,291.456 253.848,306.632 " fill="none" id="Event-backto-Herkunft" style="stroke:#181818;stroke-width:0.8000000000000002;"/><polygon fill="none" points="337.168,254.44,331.4014,254.2768,329.0329,259.537,334.7994,259.7002,337.168,254.44" style="stroke:#181818;stroke-width:0.8000000000000002;"/><text fill="#000000" font-family="sans-serif" font-size="10.4" lengthAdjust="spacing" textLength="5.6" x="322.1185" y="272.1919">1</text><text fill="#000000" font-family="sans-serif" font-size="10.4" lengthAdjust="spacing" textLength="5.6" x="252.1176" y="300.9861">1</text></g><!--reverse link Event to Sichtbarkeit--><g id="link_Event_Sichtbarkeit"><path codeLine="32" d="M408.1626,263.6975 C402.9226,282.7855 399.84,293.984 395.552,309.584 " fill="none" id="Event-backto-Sichtbarkeit" style="stroke:#181818;stroke-width:0.8000000000000002;"/><polygon fill="none" points="410.704,254.44,406.3475,258.2216,408.1626,263.6975,412.5192,259.9159,410.704,254.44" style="stroke:#181818;stroke-width:0.8000000000000002;"/><text fill="#000000" font-family="sans-serif" font-size="10.4" lengthAdjust="spacing" textLength="5.6" x="403.2379" y="272.1919">1</text><text fill="#000000" font-family="sans-serif" font-size="10.4" lengthAdjust="spacing" textLength="5.6" x="390.8088" y="300.6413">1</text></g><!--reverse link Geplant to Termin--><g id="link_Geplant_Termin"><path d="M551.6,377.848 C551.6,399.088 551.6,414.08 551.6,432.968 " fill="none" id="Geplant-backto-Termin" style="stroke:#181818;stroke-width:0.8000000000000002;"/><polygon fill="none" points="551.6,363.448,546.8,377.848,556.4,377.848,551.6,363.448" style="stroke:#181818;stroke-width:0.8000000000000002;"/></g><!--reverse link Event to Aufgabe--><g id="link_Event_Aufgabe"><path d="M541.6894,260.5373 C570.1454,276.0173 588.28,286.184 616.4,302.4 C621,305.056 625.792,307.88 630.528,310.72 " fill="none" id="Event-backto-Aufgabe" style="stroke:#181818;stroke-width:0.8000000000000002;"/><polygon fill="none" points="529.04,253.656,539.3957,264.7537,543.9832,256.3208,529.04,253.656" style="stroke:#181818;stroke-width:0.8000000000000002;"/></g><!--reverse link Machbar to Aufgabe--><g id="link_Machbar_Aufgabe"><path d="M659.522,239.1584 C662.362,263.4224 664.896,285.104 667.736,309.408 " fill="none" id="Machbar-backto-Aufgabe" style="stroke:#181818;stroke-width:0.8000000000000002;stroke-dasharray:7.0,7.0;"/><polygon fill="none" points="657.848,224.856,654.7546,239.7164,664.2895,238.6004,657.848,224.856" style="stroke:#181818;stroke-width:0.8000000000000002;"/></g><!--reverse link Geplant to GeplanteAufgabe--><g id="link_Geplant_GeplanteAufgabe"><path d="M591.4907,373.0775 C615.1067,394.3175 637.08,414.08 658.08,432.968 " fill="none" id="Geplant-backto-GeplanteAufgabe" style="stroke:#181818;stroke-width:0.8000000000000002;"/><polygon fill="none" points="580.784,363.448,588.2809,376.6464,594.7005,369.5086,580.784,363.448" style="stroke:#181818;stroke-width:0.8000000000000002;"/></g><!--reverse link Machbar to GeplanteAufgabe--><g id="link_Machbar_GeplanteAufgabe"><path d="M687.968,235.8966 C704.36,255.5766 715.464,273.072 724.4,302.4 C733.208,331.312 732.048,341.16 724.4,370.4 C718.304,393.704 703.856,417.392 692.848,433.12 " fill="none" id="Machbar-backto-GeplanteAufgabe" style="stroke:#181818;stroke-width:0.8000000000000002;stroke-dasharray:7.0,7.0;"/><polygon fill="none" points="678.752,224.832,684.2798,238.9686,691.6562,232.8246,678.752,224.832" style="stroke:#181818;stroke-width:0.8000000000000002;"/></g><!--reverse link Event to Geplant--><g id="link_Event_Geplant"><path d="M486.8253,265.0487 C504.3453,284.1367 513.392,293.984 527.72,309.584 " fill="none" id="Event-backto-Geplant" style="stroke:#181818;stroke-width:0.8000000000000002;"/><polygon fill="none" points="477.088,254.44,483.289,268.2945,490.3615,261.803,477.088,254.44" style="stroke:#181818;stroke-width:0.8000000000000002;"/></g><!--reverse link Event to Zuordnung--><g id="link_Event_Zuordnung"><path codeLine="69" d="M314.0319,233.3242 C255.1279,252.3322 189.368,275.144 124.4,302.4 C119.88,304.296 115.248,306.36 110.624,308.496 " fill="none" id="Event-backto-Zuordnung" style="stroke:#181818;stroke-width:0.8000000000000002;"/><polygon fill="none" points="323.168,230.376,317.6172,228.8047,314.0319,233.3242,319.5827,234.8955,323.168,230.376" style="stroke:#181818;stroke-width:0.8000000000000002;"/><text fill="#000000" font-family="sans-serif" font-size="10.4" lengthAdjust="spacing" textLength="5.6" x="311.1311" y="229.5617">1</text><text fill="#000000" font-family="sans-serif" font-size="10.4" lengthAdjust="spacing" textLength="16" x="116.8759" y="302.5418">0..*</text></g><!--reverse link Benutzer to Zuordnung--><g id="link_Benutzer_Zuordnung"><path codeLine="70" d="M131.9025,239.8637 C115.4785,261.1437 100.16,280.984 83.752,302.24 " fill="none" id="Benutzer-backto-Zuordnung" style="stroke:#181818;stroke-width:0.8000000000000002;"/><polygon fill="none" points="137.768,232.264,132.302,234.1087,131.9025,239.8637,137.3685,238.019,137.768,232.264" style="stroke:#181818;stroke-width:0.8000000000000002;"/><text fill="#000000" font-family="sans-serif" font-size="10.4" lengthAdjust="spacing" textLength="5.6" x="127.7837" y="249.7776">1</text><text fill="#000000" font-family="sans-serif" font-size="10.4" lengthAdjust="spacing" textLength="16" x="70.5812" y="293.3378">0..*</text></g><!--reverse link Benutzer to Herkunft--><g id="link_Benutzer_Herkunft"><path codeLine="71" d="M150.1396,241.3214 C136.5556,286.4974 120.344,352.4 144.4,352.4 " fill="none" id="Benutzer-backto-Herkunft" style="stroke:#181818;stroke-width:0.8000000000000002;"/><polygon fill="none" points="152.904,232.128,148.4574,235.8032,150.1396,241.3214,154.5863,237.6461,152.904,232.128" style="stroke:#181818;stroke-width:0.8000000000000002;"/><text fill="#000000" font-family="sans-serif" font-size="10.4" lengthAdjust="spacing" textLength="5.6" x="145.1531" y="249.8767">1</text><text fill="#000000" font-family="sans-serif" font-size="10.4" lengthAdjust="spacing" textLength="16" x="122.7263" y="350.7453">0..*</text></g><!--reverse link SerienEventController to Wiederholung--><g id="link_SerienEventController_Wiederholung"><path codeLine="73" d="M546.5142,86.8019 C599.7382,103.4499 655.048,121.376 712.4,141.6 C729.336,147.568 747.264,154.224 764.52,160.792 " fill="none" id="SerienEventController-backto-Wiederholung" style="stroke:#181818;stroke-width:0.8000000000000002;"/><polygon fill="none" points="537.352,83.936,540.9778,88.423,546.5142,86.8019,542.8884,82.3149,537.352,83.936" style="stroke:#181818;stroke-width:0.8000000000000002;"/><text fill="#000000" font-family="sans-serif" font-size="10.4" lengthAdjust="spacing" textLength="5.6" x="537.352" y="81.5587">1</text><text fill="#000000" font-family="sans-serif" font-size="10.4" lengthAdjust="spacing" textLength="5.6" x="751.6711" y="155.0468">1</text></g><!--reverse link Geplant to Zeitraum--><g id="link_Geplant_Zeitraum"><path codeLine="76" d="M609.4652,367.4054 C614.6812,369.9174 611.296,368.184 616.4,370.4 C674.288,395.504 693.088,391.16 750,418.4 C756.488,421.504 763.184,425.176 769.576,428.92 " fill="none" id="Geplant-backto-Zeitraum" style="stroke:#181818;stroke-width:0.8000000000000002;"/><polygon fill="none" points="600.816,363.24,603.7521,368.2058,609.4652,367.4054,606.5291,362.4396,600.816,363.24" style="stroke:#181818;stroke-width:0.8000000000000002;"/><text fill="#000000" font-family="sans-serif" font-size="10.4" lengthAdjust="spacing" textLength="5.6" x="603.4839" y="380.5025">1</text><text fill="#000000" font-family="sans-serif" font-size="10.4" lengthAdjust="spacing" textLength="5.6" x="757.5094" y="421.3416">1</text></g><!--reverse link Wiederholung to Zeitraum--><g id="link_Wiederholung_Zeitraum"><path codeLine="77" d="M728.4,221.2 C718.208,221.2 769.528,354.536 792.376,418.344 " fill="none" id="Wiederholung-backto-Zeitraum" style="stroke:#181818;stroke-width:0.8000000000000002;"/><polygon fill="#181818" points="733.2,221.2,726,218,729.2,221.2,726,224.4,733.2,221.2" style="stroke:#181818;stroke-width:0.8000000000000002;"/></g><!--SRC=[bLDDRzim3BthLmWvfSLQh5SloD2FjHsmeOSE6D0RRJEn45as96eT6lI_Zx8iLoxSmtmnAP6FZ-HJfS4vUON6qmlQev3yFP9LPYyDjFWfF-WvzBcpzJsu1clnAgeX-H6jGlFj3ngwxWpPJckqcwyI_nAQsidXPXkX-JHu4VO62AKZiAF_Ms6DjkcqvsBFcSEb19IEB5GaOz41T4QN5A6EGFTe3zxiI3QZCRQXgePAi0TK95tcpBgyGbSr5bN9XUF5Gq-gCw0tYvrkum02nyLxkVfyVdwnajtPsM2UhYBvvUYYg747NjDm7fCkKePGXj3keCAfnJY2FHBJLc65wvDYMcVW575MYG3_KseEbuycGYf7wV3MCsp2PFYow_GoT0uZHddyGjigCwdX3diDONMlUVsVK3MSDvM-GmAppcf5h4k_sqE9Ssb9rVOQMxRS76VGLurGQsNm3MHaWE_1nlC5E7aKSxgvKcCj0rWrZk-VkFNUcmDTbkj0W7i8lwWau1LF0VZT1Dk2RzV9uEWVtFucf6mNP9yupWOG6IG8-J8QNzvQVlByRCr4DkrIbgCHsSLf3WyqIntHZY9_heFD34BSUnr4ZKybnLJjloEIKeiY4_Y7popJORuV9fYcbeUalaGUMnGVRKXkE2yv_m00]--></g></svg>