<?xml version="1.0" encoding="us-ascii" standalone="no"?><svg xmlns="http://www.w3.org/2000/svg" xmlns:xlink="http://www.w3.org/1999/xlink" contentStyleType="text/css" height="578px" preserveAspectRatio="none" style="width:1234px;height:578px;background:#FFFFFF;" version="1.1" viewBox="0 0 1234 578" width="1234px" zoomAndPan="magnify"><defs/><g><!--class Benutzer--><g id="elem_Benutzer"><rect codeLine="1" fill="#F1F1F1" height="85.2422" id="Benutzer" rx="2.5" ry="2.5" style="stroke:#181818;stroke-width:0.5;" width="161" x="98.5" y="205"/><ellipse cx="146.75" cy="221" fill="#ADD1B2" rx="11" ry="11" style="stroke:#181818;stroke-width:1.0;"/><path d="M149.5156,216.875 Q149.6719,216.6563 149.8594,216.5469 Q150.0469,216.4375 150.2656,216.4375 Q150.6406,216.4375 150.875,216.7031 Q151.1094,216.9531 151.1094,217.5625 L151.1094,219.0156 Q151.1094,219.625 150.875,219.8906 Q150.6406,220.1563 150.2656,220.1563 Q149.9219,220.1563 149.7188,219.9531 Q149.5156,219.7656 149.4063,219.25 Q149.3594,218.8906 149.1719,218.7031 Q148.8438,218.3281 148.2344,218.1094 Q147.625,217.8906 147,217.8906 Q146.2344,217.8906 145.5938,218.2188 Q144.9688,218.5469 144.4688,219.2969 Q143.9844,220.0469 143.9844,221.0781 L143.9844,222.1719 Q143.9844,223.4063 144.875,224.2344 Q145.7656,225.0469 147.3594,225.0469 Q148.2969,225.0469 148.9531,224.7969 Q149.3438,224.6406 149.7656,224.2031 Q150.0313,223.9375 150.1719,223.8594 Q150.3281,223.7813 150.5313,223.7813 Q150.8594,223.7813 151.1094,224.0469 Q151.375,224.2969 151.375,224.6406 Q151.375,224.9844 151.0313,225.3906 Q150.5313,225.9688 149.7344,226.2969 Q148.6563,226.75 147.3594,226.75 Q145.8438,226.75 144.6406,226.125 Q143.6563,225.625 142.9688,224.5625 Q142.2813,223.4844 142.2813,222.2031 L142.2813,221.0469 Q142.2813,219.7188 142.8906,218.5781 Q143.5156,217.4219 144.6094,216.8125 Q145.7031,216.1875 146.9375,216.1875 Q147.6719,216.1875 148.3125,216.3594 Q148.9688,216.5156 149.5156,216.875 Z " fill="#000000"/><text fill="#000000" font-family="sans-serif" font-size="14" lengthAdjust="spacing" textLength="56" x="167.25" y="226.7969">Benutzer</text><line style="stroke:#181818;stroke-width:0.5;" x1="99.5" x2="258.5" y1="237" y2="237"/><text fill="#000000" font-family="sans-serif" font-size="14" lengthAdjust="spacing" textLength="80" x="104.5" y="256.1074">String name,</text><text fill="#000000" font-family="sans-serif" font-size="14" lengthAdjust="spacing" textLength="149" x="104.5" y="274.7285">String passwordHashed</text><line style="stroke:#181818;stroke-width:0.5;" x1="99.5" x2="258.5" y1="282.2422" y2="282.2422"/></g><!--class Serie--><g id="elem_Serie"><rect codeLine="5" fill="#F1F1F1" height="103.8633" id="Serie" rx="2.5" ry="2.5" style="stroke:#181818;stroke-width:0.5;" width="188" x="473" y="10"/><ellipse cx="502.4" cy="26" fill="#ADD1B2" rx="11" ry="11" style="stroke:#181818;stroke-width:1.0;"/><path d="M505.1656,21.875 Q505.3219,21.6563 505.5094,21.5469 Q505.6969,21.4375 505.9156,21.4375 Q506.2906,21.4375 506.525,21.7031 Q506.7594,21.9531 506.7594,22.5625 L506.7594,24.0156 Q506.7594,24.625 506.525,24.8906 Q506.2906,25.1563 505.9156,25.1563 Q505.5719,25.1563 505.3688,24.9531 Q505.1656,24.7656 505.0563,24.25 Q505.0094,23.8906 504.8219,23.7031 Q504.4938,23.3281 503.8844,23.1094 Q503.275,22.8906 502.65,22.8906 Q501.8844,22.8906 501.2438,23.2188 Q500.6188,23.5469 500.1188,24.2969 Q499.6344,25.0469 499.6344,26.0781 L499.6344,27.1719 Q499.6344,28.4063 500.525,29.2344 Q501.4156,30.0469 503.0094,30.0469 Q503.9469,30.0469 504.6031,29.7969 Q504.9938,29.6406 505.4156,29.2031 Q505.6813,28.9375 505.8219,28.8594 Q505.9781,28.7813 506.1813,28.7813 Q506.5094,28.7813 506.7594,29.0469 Q507.025,29.2969 507.025,29.6406 Q507.025,29.9844 506.6813,30.3906 Q506.1813,30.9688 505.3844,31.2969 Q504.3063,31.75 503.0094,31.75 Q501.4938,31.75 500.2906,31.125 Q499.3063,30.625 498.6188,29.5625 Q497.9313,28.4844 497.9313,27.2031 L497.9313,26.0469 Q497.9313,24.7188 498.5406,23.5781 Q499.1656,22.4219 500.2594,21.8125 Q501.3531,21.1875 502.5875,21.1875 Q503.3219,21.1875 503.9625,21.3594 Q504.6188,21.5156 505.1656,21.875 Z " fill="#000000"/><text fill="#000000" font-family="sans-serif" font-size="14" lengthAdjust="spacing" textLength="33" x="519.6" y="31.7969">Serie</text><rect fill="#FFFFFF" height="17.9609" style="stroke:#181818;stroke-width:1.0;stroke-dasharray:2.0,2.0;" width="89" x="575" y="7"/><text fill="#000000" font-family="sans-serif" font-size="12" font-style="italic" lengthAdjust="spacing" textLength="87" x="576" y="20.9492">? extends Event</text><line style="stroke:#181818;stroke-width:0.5;" x1="474" x2="660" y1="42" y2="42"/><text fill="#000000" font-family="sans-serif" font-size="14" lengthAdjust="spacing" textLength="51" x="479" y="61.1074">? event,</text><text fill="#000000" font-family="sans-serif" font-size="14" lengthAdjust="spacing" textLength="66" x="479" y="79.7285">Date start,</text><text fill="#000000" font-family="sans-serif" font-size="14" lengthAdjust="spacing" textLength="176" x="479" y="98.3496">Wiederholung wiederholung</text><line style="stroke:#181818;stroke-width:0.5;" x1="474" x2="660" y1="105.8633" y2="105.8633"/></g><!--class Event--><g id="elem_Event"><rect codeLine="11" fill="#F1F1F1" height="141.1055" id="Event" rx="2.5" ry="2.5" style="stroke:#181818;stroke-width:0.5;" width="166" x="484" y="177"/><ellipse cx="545.25" cy="193" fill="#A9DCDF" rx="11" ry="11" style="stroke:#181818;stroke-width:1.0;"/><path d="M547.4375,194.7656 L543.2969,194.7656 L542.875,195.7969 L543.2969,195.7969 Q543.9063,195.7969 544.1719,196.0313 Q544.4375,196.2656 544.4375,196.6563 Q544.4375,197.0313 544.1719,197.2656 Q543.9063,197.5 543.2969,197.5 L541,197.5 Q540.3906,197.5 540.1406,197.2656 Q539.875,197.0313 539.875,196.6406 Q539.875,196.2656 540.1563,196.0313 Q540.4219,195.7813 541.0469,195.7969 L543.7188,189.1406 L542.6094,189.1406 Q542,189.1406 541.7344,188.9063 Q541.4688,188.6719 541.4688,188.2813 Q541.4688,187.9063 541.7344,187.6719 Q542,187.4375 542.6094,187.4375 L546.2813,187.4375 L549.6719,195.7969 Q550.2656,195.7969 550.4531,195.9375 Q550.8438,196.2031 550.8438,196.6563 Q550.8438,197.0313 550.5781,197.2656 Q550.3281,197.5 549.7188,197.5 L547.4219,197.5 Q546.8125,197.5 546.5469,197.2656 Q546.2813,197.0313 546.2813,196.6406 Q546.2813,196.2656 546.5469,196.0313 Q546.8125,195.7969 547.4219,195.7969 L547.8438,195.7969 L547.4375,194.7656 Z M546.7188,193.0625 L545.3594,189.6875 L543.9844,193.0625 L546.7188,193.0625 Z " fill="#000000"/><text fill="#000000" font-family="sans-serif" font-size="14" font-style="italic" lengthAdjust="spacing" textLength="35" x="565.75" y="198.7969">Event</text><line style="stroke:#181818;stroke-width:0.5;" x1="485" x2="649" y1="209" y2="209"/><text fill="#000000" font-family="sans-serif" font-size="14" lengthAdjust="spacing" textLength="67" x="490" y="228.1074">String titel,</text><text fill="#000000" font-family="sans-serif" font-size="14" lengthAdjust="spacing" textLength="113" x="490" y="246.7285">Herkunft herkunft,</text><text fill="#000000" font-family="sans-serif" font-size="14" lengthAdjust="spacing" textLength="154" x="490" y="265.3496">Sichtbarkeit sichtbarkeit,</text><text fill="#000000" font-family="sans-serif" font-size="14" lengthAdjust="spacing" textLength="132" x="490" y="283.9707">String Beschreibung,</text><text fill="#000000" font-family="sans-serif" font-size="14" lengthAdjust="spacing" textLength="139" x="490" y="302.5918">Optional&lt;Serie&gt; Serie</text><line style="stroke:#181818;stroke-width:0.5;" x1="485" x2="649" y1="310.1055" y2="310.1055"/></g><!--class Herkunft--><g id="elem_Herkunft"><rect codeLine="22" fill="#F1F1F1" height="66.6211" id="Herkunft" rx="2.5" ry="2.5" style="stroke:#181818;stroke-width:0.5;" width="156" x="7" y="387.5"/><ellipse cx="53.25" cy="403.5" fill="#B4A7E5" rx="11" ry="11" style="stroke:#181818;stroke-width:1.0;"/><path d="M54.2031,400.1406 L54.2031,406.7969 L55.9219,406.7969 Q56.5313,406.7969 56.7969,407.0313 Q57.0625,407.2656 57.0625,407.6563 Q57.0625,408.0313 56.7969,408.2656 Q56.5313,408.5 55.9219,408.5 L50.7813,408.5 Q50.1719,408.5 49.9063,408.2656 Q49.6406,408.0313 49.6406,407.6406 Q49.6406,407.2656 49.9063,407.0313 Q50.1719,406.7969 50.7813,406.7969 L52.5,406.7969 L52.5,400.1406 L50.7813,400.1406 Q50.1719,400.1406 49.9063,399.9063 Q49.6406,399.6719 49.6406,399.2813 Q49.6406,398.9063 49.9063,398.6719 Q50.1719,398.4375 50.7813,398.4375 L55.9219,398.4375 Q56.5313,398.4375 56.7969,398.6719 Q57.0625,398.9063 57.0625,399.2813 Q57.0625,399.6719 56.7969,399.9063 Q56.5313,400.1406 55.9219,400.1406 L54.2031,400.1406 Z " fill="#000000"/><text fill="#000000" font-family="sans-serif" font-size="14" font-style="italic" lengthAdjust="spacing" textLength="55" x="73.75" y="409.2969">Herkunft</text><line style="stroke:#181818;stroke-width:0.5;" x1="8" x2="162" y1="419.5" y2="419.5"/><line style="stroke:#181818;stroke-width:0.5;" x1="8" x2="162" y1="427.5" y2="427.5"/><text fill="#000000" font-family="sans-serif" font-size="14" lengthAdjust="spacing" textLength="144" x="13" y="446.6074">getBesitzer(): Benutzer</text></g><!--class Sichtbarkeit--><g id="elem_Sichtbarkeit"><rect codeLine="28" fill="#F1F1F1" height="66.6211" id="Sichtbarkeit" rx="2.5" ry="2.5" style="stroke:#181818;stroke-width:0.5;" width="209" x="372.5" y="387"/><ellipse cx="435.25" cy="403" fill="#B4A7E5" rx="11" ry="11" style="stroke:#181818;stroke-width:1.0;"/><path d="M436.2031,399.6406 L436.2031,406.2969 L437.9219,406.2969 Q438.5313,406.2969 438.7969,406.5313 Q439.0625,406.7656 439.0625,407.1563 Q439.0625,407.5313 438.7969,407.7656 Q438.5313,408 437.9219,408 L432.7813,408 Q432.1719,408 431.9063,407.7656 Q431.6406,407.5313 431.6406,407.1406 Q431.6406,406.7656 431.9063,406.5313 Q432.1719,406.2969 432.7813,406.2969 L434.5,406.2969 L434.5,399.6406 L432.7813,399.6406 Q432.1719,399.6406 431.9063,399.4063 Q431.6406,399.1719 431.6406,398.7813 Q431.6406,398.4063 431.9063,398.1719 Q432.1719,397.9375 432.7813,397.9375 L437.9219,397.9375 Q438.5313,397.9375 438.7969,398.1719 Q439.0625,398.4063 439.0625,398.7813 Q439.0625,399.1719 438.7969,399.4063 Q438.5313,399.6406 437.9219,399.6406 L436.2031,399.6406 Z " fill="#000000"/><text fill="#000000" font-family="sans-serif" font-size="14" font-style="italic" lengthAdjust="spacing" textLength="75" x="455.75" y="408.7969">Sichtbarkeit</text><line style="stroke:#181818;stroke-width:0.5;" x1="373.5" x2="580.5" y1="419" y2="419"/><line style="stroke:#181818;stroke-width:0.5;" x1="373.5" x2="580.5" y1="427" y2="427"/><text fill="#000000" font-family="sans-serif" font-size="14" lengthAdjust="spacing" textLength="197" x="378.5" y="446.1074">istSichtbarFuer(Benutzer): bool</text></g><!--class Machbar--><g id="elem_Machbar"><rect codeLine="36" fill="#F1F1F1" height="66.6211" id="Machbar" rx="2.5" ry="2.5" style="stroke:#181818;stroke-width:0.5;" width="110" x="775" y="214"/><ellipse cx="799.9" cy="230" fill="#B4A7E5" rx="11" ry="11" style="stroke:#181818;stroke-width:1.0;"/><path d="M800.8531,226.6406 L800.8531,233.2969 L802.5719,233.2969 Q803.1813,233.2969 803.4469,233.5313 Q803.7125,233.7656 803.7125,234.1563 Q803.7125,234.5313 803.4469,234.7656 Q803.1813,235 802.5719,235 L797.4313,235 Q796.8219,235 796.5563,234.7656 Q796.2906,234.5313 796.2906,234.1406 Q796.2906,233.7656 796.5563,233.5313 Q796.8219,233.2969 797.4313,233.2969 L799.15,233.2969 L799.15,226.6406 L797.4313,226.6406 Q796.8219,226.6406 796.5563,226.4063 Q796.2906,226.1719 796.2906,225.7813 Q796.2906,225.4063 796.5563,225.1719 Q796.8219,224.9375 797.4313,224.9375 L802.5719,224.9375 Q803.1813,224.9375 803.4469,225.1719 Q803.7125,225.4063 803.7125,225.7813 Q803.7125,226.1719 803.4469,226.4063 Q803.1813,226.6406 802.5719,226.6406 L800.8531,226.6406 Z " fill="#000000"/><text fill="#000000" font-family="sans-serif" font-size="14" font-style="italic" lengthAdjust="spacing" textLength="56" x="816.1" y="235.7969">Machbar</text><line style="stroke:#181818;stroke-width:0.5;" x1="776" x2="884" y1="246" y2="246"/><line style="stroke:#181818;stroke-width:0.5;" x1="776" x2="884" y1="254" y2="254"/><text fill="#000000" font-family="sans-serif" font-size="14" lengthAdjust="spacing" textLength="98" x="781" y="273.1074">istGetan(): bool</text></g><!--class Aufgabe--><g id="elem_Aufgabe"><rect codeLine="40" fill="#F1F1F1" height="66.6211" id="Aufgabe" rx="2.5" ry="2.5" style="stroke:#181818;stroke-width:0.5;" width="100" x="780" y="387"/><ellipse cx="801.75" cy="403" fill="#ADD1B2" rx="11" ry="11" style="stroke:#181818;stroke-width:1.0;"/><path d="M804.5156,398.875 Q804.6719,398.6563 804.8594,398.5469 Q805.0469,398.4375 805.2656,398.4375 Q805.6406,398.4375 805.875,398.7031 Q806.1094,398.9531 806.1094,399.5625 L806.1094,401.0156 Q806.1094,401.625 805.875,401.8906 Q805.6406,402.1563 805.2656,402.1563 Q804.9219,402.1563 804.7188,401.9531 Q804.5156,401.7656 804.4063,401.25 Q804.3594,400.8906 804.1719,400.7031 Q803.8438,400.3281 803.2344,400.1094 Q802.625,399.8906 802,399.8906 Q801.2344,399.8906 800.5938,400.2188 Q799.9688,400.5469 799.4688,401.2969 Q798.9844,402.0469 798.9844,403.0781 L798.9844,404.1719 Q798.9844,405.4063 799.875,406.2344 Q800.7656,407.0469 802.3594,407.0469 Q803.2969,407.0469 803.9531,406.7969 Q804.3438,406.6406 804.7656,406.2031 Q805.0313,405.9375 805.1719,405.8594 Q805.3281,405.7813 805.5313,405.7813 Q805.8594,405.7813 806.1094,406.0469 Q806.375,406.2969 806.375,406.6406 Q806.375,406.9844 806.0313,407.3906 Q805.5313,407.9688 804.7344,408.2969 Q803.6563,408.75 802.3594,408.75 Q800.8438,408.75 799.6406,408.125 Q798.6563,407.625 797.9688,406.5625 Q797.2813,405.4844 797.2813,404.2031 L797.2813,403.0469 Q797.2813,401.7188 797.8906,400.5781 Q798.5156,399.4219 799.6094,398.8125 Q800.7031,398.1875 801.9375,398.1875 Q802.6719,398.1875 803.3125,398.3594 Q803.9688,398.5156 804.5156,398.875 Z " fill="#000000"/><text fill="#000000" font-family="sans-serif" font-size="14" lengthAdjust="spacing" textLength="53" x="817.25" y="408.7969">Aufgabe</text><line style="stroke:#181818;stroke-width:0.5;" x1="781" x2="879" y1="419" y2="419"/><text fill="#000000" font-family="sans-serif" font-size="14" lengthAdjust="spacing" textLength="88" x="786" y="438.1074">Date deadline</text><line style="stroke:#181818;stroke-width:0.5;" x1="781" x2="879" y1="445.6211" y2="445.6211"/></g><!--class GeplanteAufgabe--><g id="elem_GeplanteAufgabe"><rect codeLine="44" fill="#F1F1F1" height="48" id="GeplanteAufgabe" rx="2.5" ry="2.5" style="stroke:#181818;stroke-width:0.5;" width="143" x="735.5" y="523"/><ellipse cx="750.5" cy="539" fill="#ADD1B2" rx="11" ry="11" style="stroke:#181818;stroke-width:1.0;"/><path d="M753.2656,534.875 Q753.4219,534.6563 753.6094,534.5469 Q753.7969,534.4375 754.0156,534.4375 Q754.3906,534.4375 754.625,534.7031 Q754.8594,534.9531 754.8594,535.5625 L754.8594,537.0156 Q754.8594,537.625 754.625,537.8906 Q754.3906,538.1563 754.0156,538.1563 Q753.6719,538.1563 753.4688,537.9531 Q753.2656,537.7656 753.1563,537.25 Q753.1094,536.8906 752.9219,536.7031 Q752.5938,536.3281 751.9844,536.1094 Q751.375,535.8906 750.75,535.8906 Q749.9844,535.8906 749.3438,536.2188 Q748.7188,536.5469 748.2188,537.2969 Q747.7344,538.0469 747.7344,539.0781 L747.7344,540.1719 Q747.7344,541.4063 748.625,542.2344 Q749.5156,543.0469 751.1094,543.0469 Q752.0469,543.0469 752.7031,542.7969 Q753.0938,542.6406 753.5156,542.2031 Q753.7813,541.9375 753.9219,541.8594 Q754.0781,541.7813 754.2813,541.7813 Q754.6094,541.7813 754.8594,542.0469 Q755.125,542.2969 755.125,542.6406 Q755.125,542.9844 754.7813,543.3906 Q754.2813,543.9688 753.4844,544.2969 Q752.4063,544.75 751.1094,544.75 Q749.5938,544.75 748.3906,544.125 Q747.4063,543.625 746.7188,542.5625 Q746.0313,541.4844 746.0313,540.2031 L746.0313,539.0469 Q746.0313,537.7188 746.6406,536.5781 Q747.2656,535.4219 748.3594,534.8125 Q749.4531,534.1875 750.6875,534.1875 Q751.4219,534.1875 752.0625,534.3594 Q752.7188,534.5156 753.2656,534.875 Z " fill="#000000"/><text fill="#000000" font-family="sans-serif" font-size="14" lengthAdjust="spacing" textLength="111" x="764.5" y="544.7969">GeplanteAufgabe</text><line style="stroke:#181818;stroke-width:0.5;" x1="736.5" x2="877.5" y1="555" y2="555"/><line style="stroke:#181818;stroke-width:0.5;" x1="736.5" x2="877.5" y1="563" y2="563"/></g><!--class Termin--><g id="elem_Termin"><rect codeLine="53" fill="#F1F1F1" height="66.6211" id="Termin" rx="2.5" ry="2.5" style="stroke:#181818;stroke-width:0.5;" width="128" x="617" y="387"/><ellipse cx="655.4" cy="403" fill="#ADD1B2" rx="11" ry="11" style="stroke:#181818;stroke-width:1.0;"/><path d="M658.1656,398.875 Q658.3219,398.6563 658.5094,398.5469 Q658.6969,398.4375 658.9156,398.4375 Q659.2906,398.4375 659.525,398.7031 Q659.7594,398.9531 659.7594,399.5625 L659.7594,401.0156 Q659.7594,401.625 659.525,401.8906 Q659.2906,402.1563 658.9156,402.1563 Q658.5719,402.1563 658.3688,401.9531 Q658.1656,401.7656 658.0563,401.25 Q658.0094,400.8906 657.8219,400.7031 Q657.4938,400.3281 656.8844,400.1094 Q656.275,399.8906 655.65,399.8906 Q654.8844,399.8906 654.2438,400.2188 Q653.6188,400.5469 653.1188,401.2969 Q652.6344,402.0469 652.6344,403.0781 L652.6344,404.1719 Q652.6344,405.4063 653.525,406.2344 Q654.4156,407.0469 656.0094,407.0469 Q656.9469,407.0469 657.6031,406.7969 Q657.9938,406.6406 658.4156,406.2031 Q658.6813,405.9375 658.8219,405.8594 Q658.9781,405.7813 659.1813,405.7813 Q659.5094,405.7813 659.7594,406.0469 Q660.025,406.2969 660.025,406.6406 Q660.025,406.9844 659.6813,407.3906 Q659.1813,407.9688 658.3844,408.2969 Q657.3063,408.75 656.0094,408.75 Q654.4938,408.75 653.2906,408.125 Q652.3063,407.625 651.6188,406.5625 Q650.9313,405.4844 650.9313,404.2031 L650.9313,403.0469 Q650.9313,401.7188 651.5406,400.5781 Q652.1656,399.4219 653.2594,398.8125 Q654.3531,398.1875 655.5875,398.1875 Q656.3219,398.1875 656.9625,398.3594 Q657.6188,398.5156 658.1656,398.875 Z " fill="#000000"/><text fill="#000000" font-family="sans-serif" font-size="14" lengthAdjust="spacing" textLength="44" x="674.6" y="408.7969">Termin</text><line style="stroke:#181818;stroke-width:0.5;" x1="618" x2="744" y1="419" y2="419"/><text fill="#000000" font-family="sans-serif" font-size="14" lengthAdjust="spacing" textLength="116" x="623" y="438.1074">Zeitraum zeitraum;</text><line style="stroke:#181818;stroke-width:0.5;" x1="618" x2="744" y1="445.6211" y2="445.6211"/></g><!--class Wiederholung--><g id="elem_Wiederholung"><rect codeLine="48" fill="#F1F1F1" height="85.2422" id="Wiederholung" rx="2.5" ry="2.5" style="stroke:#181818;stroke-width:0.5;" width="307" x="920.5" y="205"/><ellipse cx="1025.25" cy="221" fill="#B4A7E5" rx="11" ry="11" style="stroke:#181818;stroke-width:1.0;"/><path d="M1026.2031,217.6406 L1026.2031,224.2969 L1027.9219,224.2969 Q1028.5313,224.2969 1028.7969,224.5313 Q1029.0625,224.7656 1029.0625,225.1563 Q1029.0625,225.5313 1028.7969,225.7656 Q1028.5313,226 1027.9219,226 L1022.7813,226 Q1022.1719,226 1021.9063,225.7656 Q1021.6406,225.5313 1021.6406,225.1406 Q1021.6406,224.7656 1021.9063,224.5313 Q1022.1719,224.2969 1022.7813,224.2969 L1024.5,224.2969 L1024.5,217.6406 L1022.7813,217.6406 Q1022.1719,217.6406 1021.9063,217.4063 Q1021.6406,217.1719 1021.6406,216.7813 Q1021.6406,216.4063 1021.9063,216.1719 Q1022.1719,215.9375 1022.7813,215.9375 L1027.9219,215.9375 Q1028.5313,215.9375 1028.7969,216.1719 Q1029.0625,216.4063 1029.0625,216.7813 Q1029.0625,217.1719 1028.7969,217.4063 Q1028.5313,217.6406 1027.9219,217.6406 L1026.2031,217.6406 Z " fill="#000000"/><text fill="#000000" font-family="sans-serif" font-size="14" font-style="italic" lengthAdjust="spacing" textLength="89" x="1045.75" y="226.7969">Wiederholung</text><line style="stroke:#181818;stroke-width:0.5;" x1="921.5" x2="1226.5" y1="237" y2="237"/><line style="stroke:#181818;stroke-width:0.5;" x1="921.5" x2="1226.5" y1="245" y2="245"/><text fill="#000000" font-family="sans-serif" font-size="14" lengthAdjust="spacing" textLength="220" x="926.5" y="264.1074">naechsterZeitpunktAb(Date): Date,</text><text fill="#000000" font-family="sans-serif" font-size="14" lengthAdjust="spacing" textLength="295" x="926.5" y="282.7285">alleZeitpunkteInZeitraum(Zeitraum): List&lt;Date&gt;</text></g><!--class Zuordnung--><g id="elem_Zuordnung"><rect codeLine="57" fill="#F1F1F1" height="85.2422" id="Zuordnung" rx="2.5" ry="2.5" style="stroke:#181818;stroke-width:0.5;" width="131" x="206.5" y="378"/><ellipse cx="235" cy="394" fill="#ADD1B2" rx="11" ry="11" style="stroke:#181818;stroke-width:1.0;"/><path d="M237.7656,389.875 Q237.9219,389.6563 238.1094,389.5469 Q238.2969,389.4375 238.5156,389.4375 Q238.8906,389.4375 239.125,389.7031 Q239.3594,389.9531 239.3594,390.5625 L239.3594,392.0156 Q239.3594,392.625 239.125,392.8906 Q238.8906,393.1563 238.5156,393.1563 Q238.1719,393.1563 237.9688,392.9531 Q237.7656,392.7656 237.6563,392.25 Q237.6094,391.8906 237.4219,391.7031 Q237.0938,391.3281 236.4844,391.1094 Q235.875,390.8906 235.25,390.8906 Q234.4844,390.8906 233.8438,391.2188 Q233.2188,391.5469 232.7188,392.2969 Q232.2344,393.0469 232.2344,394.0781 L232.2344,395.1719 Q232.2344,396.4063 233.125,397.2344 Q234.0156,398.0469 235.6094,398.0469 Q236.5469,398.0469 237.2031,397.7969 Q237.5938,397.6406 238.0156,397.2031 Q238.2813,396.9375 238.4219,396.8594 Q238.5781,396.7813 238.7813,396.7813 Q239.1094,396.7813 239.3594,397.0469 Q239.625,397.2969 239.625,397.6406 Q239.625,397.9844 239.2813,398.3906 Q238.7813,398.9688 237.9844,399.2969 Q236.9063,399.75 235.6094,399.75 Q234.0938,399.75 232.8906,399.125 Q231.9063,398.625 231.2188,397.5625 Q230.5313,396.4844 230.5313,395.2031 L230.5313,394.0469 Q230.5313,392.7188 231.1406,391.5781 Q231.7656,390.4219 232.8594,389.8125 Q233.9531,389.1875 235.1875,389.1875 Q235.9219,389.1875 236.5625,389.3594 Q237.2188,389.5156 237.7656,389.875 Z " fill="#000000"/><text fill="#000000" font-family="sans-serif" font-size="14" lengthAdjust="spacing" textLength="69" x="252" y="399.7969">Zuordnung</text><line style="stroke:#181818;stroke-width:0.5;" x1="207.5" x2="336.5" y1="410" y2="410"/><text fill="#000000" font-family="sans-serif" font-size="14" lengthAdjust="spacing" textLength="119" x="212.5" y="429.1074">Benutzer benutzer,</text><text fill="#000000" font-family="sans-serif" font-size="14" lengthAdjust="spacing" textLength="75" x="212.5" y="447.7285">Event event</text><line style="stroke:#181818;stroke-width:0.5;" x1="207.5" x2="336.5" y1="455.2422" y2="455.2422"/></g><!--reverse link Serie to Event--><g id="link_Serie_Event"><path codeLine="19" d="M554.5654,129.1916 C553.5254,147.9416 553.98,157.2 554.59,176.96 " fill="none" id="Serie-backto-Event" style="stroke:#181818;stroke-width:1.0;"/><polygon fill="none" points="555.23,117.21,550.9038,122.9793,554.5654,129.1916,558.8916,123.4223,555.23,117.21" style="stroke:#181818;stroke-width:1.0;"/><text fill="#000000" font-family="sans-serif" font-size="13" lengthAdjust="spacing" textLength="22" x="531.5578" y="135.9327">0..1</text><text fill="#000000" font-family="sans-serif" font-size="13" lengthAdjust="spacing" textLength="20" x="532.279" y="165.8469">0..*</text></g><!--reverse link Serie to Event--><g id="link_Serie_Event"><path codeLine="20" d="M580.1628,129.1894 C581.2628,147.9394 580.79,157.2 580.14,176.96 " fill="none" id="Serie-backto-Event-1" style="stroke:#181818;stroke-width:1.0;"/><polygon fill="none" points="579.46,117.21,575.8183,123.434,580.1628,129.1894,583.8045,122.9654,579.46,117.21" style="stroke:#181818;stroke-width:1.0;"/><text fill="#000000" font-family="sans-serif" font-size="13" lengthAdjust="spacing" textLength="7" x="574.1341" y="165.8469">1</text></g><!--reverse link Event to Herkunft--><g id="link_Event_Herkunft"><path codeLine="26" d="M472.5974,279.3894 C395.7374,304.8194 289.82,340.64 189,378 C183.17,380.16 177.17,382.43 171.13,384.75 " fill="none" id="Event-backto-Herkunft" style="stroke:#181818;stroke-width:1.0;"/><polygon fill="none" points="483.99,275.62,477.0372,273.7071,472.5974,279.3894,479.5501,281.3022,483.99,275.62" style="stroke:#181818;stroke-width:1.0;"/><text fill="#000000" font-family="sans-serif" font-size="13" lengthAdjust="spacing" textLength="7" x="469.0149" y="274.4656">1</text><text fill="#000000" font-family="sans-serif" font-size="13" lengthAdjust="spacing" textLength="7" x="171.13" y="381.7783">1</text></g><!--reverse link Event to Sichtbarkeit--><g id="link_Event_Sichtbarkeit"><path codeLine="32" d="M524.8038,328.6705 C512.2538,352.5305 504.38,367.48 494.11,386.98 " fill="none" id="Event-backto-Sichtbarkeit" style="stroke:#181818;stroke-width:1.0;"/><polygon fill="none" points="530.39,318.05,524.0567,321.4982,524.8038,328.6705,531.1371,325.2223,530.39,318.05" style="stroke:#181818;stroke-width:1.0;"/><text fill="#000000" font-family="sans-serif" font-size="13" lengthAdjust="spacing" textLength="7" x="519.2537" y="340.2399">1</text><text fill="#000000" font-family="sans-serif" font-size="13" lengthAdjust="spacing" textLength="7" x="489.7895" y="375.8016">1</text></g><!--reverse link Event to Aufgabe--><g id="link_Event_Aufgabe"><path d="M665.3009,312.4214 C707.8909,340.1114 743.24,363.09 779.84,386.88 " fill="none" id="Event-backto-Aufgabe" style="stroke:#181818;stroke-width:1.0;"/><polygon fill="none" points="650.21,302.61,662.0305,317.4517,668.5714,307.3911,650.21,302.61" style="stroke:#181818;stroke-width:1.0;"/></g><!--reverse link Machbar to Aufgabe--><g id="link_Machbar_Aufgabe"><path d="M830,299.07 C830,329.4 830,356.38 830,386.76 " fill="none" id="Machbar-backto-Aufgabe" style="stroke:#181818;stroke-width:1.0;stroke-dasharray:7.0,7.0;"/><polygon fill="none" points="830,281.07,824,299.07,836,299.07,830,281.07" style="stroke:#181818;stroke-width:1.0;"/></g><!--reverse link Termin to GeplanteAufgabe--><g id="link_Termin_GeplanteAufgabe"><path d="M726.9138,466.8616 C748.7838,488.4716 764.11,503.62 783.66,522.94 " fill="none" id="Termin-backto-GeplanteAufgabe" style="stroke:#181818;stroke-width:1.0;"/><polygon fill="none" points="714.11,454.21,722.6966,471.1295,731.131,462.5937,714.11,454.21" style="stroke:#181818;stroke-width:1.0;"/></g><!--reverse link Machbar to GeplanteAufgabe--><g id="link_Machbar_GeplanteAufgabe"><path d="M864.6761,296.2055 C893.5761,338.9855 924.24,400.82 897,463 C886.17,487.73 863.93,508.35 844.28,522.85 " fill="none" id="Machbar-backto-GeplanteAufgabe" style="stroke:#181818;stroke-width:1.0;stroke-dasharray:7.0,7.0;"/><polygon fill="none" points="854.6,281.29,859.7043,299.5642,869.648,292.8468,854.6,281.29" style="stroke:#181818;stroke-width:1.0;"/></g><!--reverse link Event to Termin--><g id="link_Event_Termin"><path d="M623.3517,333.0288 C639.2517,356.8888 646.32,367.48 659.32,386.98 " fill="none" id="Event-backto-Termin" style="stroke:#181818;stroke-width:1.0;"/><polygon fill="none" points="613.37,318.05,618.3588,336.3561,628.3447,329.7016,613.37,318.05" style="stroke:#181818;stroke-width:1.0;"/></g><!--reverse link Event to Zuordnung--><g id="link_Event_Zuordnung"><path codeLine="64" d="M473.2672,302.8365 C427.0872,329.5965 380.89,356.38 337.84,381.33 " fill="none" id="Event-backto-Zuordnung" style="stroke:#181818;stroke-width:1.0;"/><polygon fill="none" points="483.65,296.82,476.4531,296.3673,473.2672,302.8365,480.4641,303.2892,483.65,296.82" style="stroke:#181818;stroke-width:1.0;"/><text fill="#000000" font-family="sans-serif" font-size="13" lengthAdjust="spacing" textLength="7" x="468.9149" y="297.4921">1</text><text fill="#000000" font-family="sans-serif" font-size="13" lengthAdjust="spacing" textLength="20" x="345.661" y="373.4449">0..*</text></g><!--reverse link Benutzer to Zuordnung--><g id="link_Benutzer_Zuordnung"><path codeLine="65" d="M207.4843,300.8713 C221.9543,327.4713 234.87,351.23 249.32,377.8 " fill="none" id="Benutzer-backto-Zuordnung" style="stroke:#181818;stroke-width:1.0;"/><polygon fill="none" points="201.75,290.33,201.1034,297.5121,207.4843,300.8713,208.1309,293.6892,201.75,290.33" style="stroke:#181818;stroke-width:1.0;"/><text fill="#000000" font-family="sans-serif" font-size="13" lengthAdjust="spacing" textLength="7" x="197.6977" y="312.222">1</text><text fill="#000000" font-family="sans-serif" font-size="13" lengthAdjust="spacing" textLength="20" x="224.1116" y="366.6722">0..*</text></g><!--reverse link Benutzer to Herkunft--><g id="link_Benutzer_Herkunft"><path codeLine="66" d="M185.0249,302.1043 C190.4849,358.5743 193.92,440.5 164,440.5 " fill="none" id="Benutzer-backto-Herkunft" style="stroke:#181818;stroke-width:1.0;"/><polygon fill="none" points="183.87,290.16,180.466,296.5171,185.0249,302.1043,188.4289,295.7472,183.87,290.16" style="stroke:#181818;stroke-width:1.0;"/><text fill="#000000" font-family="sans-serif" font-size="13" lengthAdjust="spacing" textLength="7" x="177.0883" y="312.3458">1</text><text fill="#000000" font-family="sans-serif" font-size="13" lengthAdjust="spacing" textLength="20" x="171.0922" y="438.4316">0..*</text></g><!--reverse link Serie to Wiederholung--><g id="link_Serie_Wiederholung"><path codeLine="68" d="M680.419,99.5404 C747.059,121.6604 824.39,148.08 902,177 C925.39,185.72 950.38,195.52 973.86,204.96 " fill="none" id="Serie-backto-Wiederholung" style="stroke:#181818;stroke-width:1.0;"/><polygon fill="none" points="669.03,95.76,673.4644,101.4465,680.419,99.5404,675.9846,93.8539,669.03,95.76" style="stroke:#181818;stroke-width:1.0;"/><text fill="#000000" font-family="sans-serif" font-size="13" lengthAdjust="spacing" textLength="7" x="669.03" y="92.7883">1</text><text fill="#000000" font-family="sans-serif" font-size="13" lengthAdjust="spacing" textLength="7" x="950.3424" y="193.8577">1</text></g><!--SRC=[bPDHRzGm3CVVyocYUpeGczXhEHtQ16n881w6XBGtj_LTeqlJAd4OsiHtnwcRNWfxeIzn4lldlskdiH22la4NwGdzizBytPCtxgWTzFYcF1ZPzN7mxHs43blrMpLJy3rwWxlt6dyHkZReZp_HqLvGV9fsWla0X3eG-7d_ms2BlXjiPFXZiM6qWZgGXuQq99cWAtba2As0xj2VeZkGxcPZbcsQZchm9pIaGx5PLNM3eUaycfeJoyMtaSpWmEwcolPIOD8q6NhpzlBoQgE7Yul9VBqHSN9RLIqU85gQpiJfAdieumZz0HfS94j9HoIMOL8Bjg-gfHqfft0sEI6lERJ4bQKAqWJAXvyYOpEJyVKms9VH9KQfCi5NQ3g-MDYtIE2s1KpQT1qFHwXnFGlQzAF5dgsmvam3qIAqrZWyGsvnjC2P_uPzHzyRzm9DFwiKVLPRJfQaSe1D5_Z-WKiReplHTRrD-Rc4j4ZdmLfS7F2pIxQ7s6-pmTvVkFfT2jcV5S_ALbLBtXoedsRZtJdg8V9ZSel4t25TpuPeabyuFQCK-a_RP0GNbbem_-sH1wkgYdbSfhuOa_BtgZy0]--></g></svg>